<svg xmlns="http://www.w3.org/2000/svg" xmlns:xlink="http://www.w3.org/1999/xlink" version="1.2" width="143.82mm" height="23.07mm" viewBox="8.5358 -0.0000 81.8418 13.1308">
<style text="style/css">
<![CDATA[
tspan { white-space: pre; }
]]>
</style>
<line transform="translate(8.5358, 6.0000)" stroke-linejoin="round" stroke-linecap="round" stroke-width="0.1000" stroke="currentColor" x1="0.0500" y1="-0.0000" x2="81.7918" y2="-0.0000"/>
<line transform="translate(8.5358, 5.0000)" stroke-linejoin="round" stroke-linecap="round" stroke-width="0.1000" stroke="currentColor" x1="0.0500" y1="-0.0000" x2="81.7918" y2="-0.0000"/>
<line transform="translate(8.5358, 4.0000)" stroke-linejoin="round" stroke-linecap="round" stroke-width="0.1000" stroke="currentColor" x1="0.0500" y1="-0.0000" x2="81.7918" y2="-0.0000"/>
<line transform="translate(8.5358, 3.0000)" stroke-linejoin="round" stroke-linecap="round" stroke-width="0.1000" stroke="currentColor" x1="0.0500" y1="-0.0000" x2="81.7918" y2="-0.0000"/>
<line transform="translate(8.5358, 2.0000)" stroke-linejoin="round" stroke-linecap="round" stroke-width="0.1000" stroke="currentColor" x1="0.0500" y1="-0.0000" x2="81.7918" y2="-0.0000"/>
<rect transform="translate(43.3931, 4.0000)" x="0.0000" y="-2.0000" width="0.1900" height="4.0000" ry="0.0000" fill="currentColor"/>
<rect transform="translate(77.1274, 4.0000)" x="0.0000" y="-2.0000" width="0.1900" height="4.0000" ry="0.0000" fill="currentColor"/>
<rect transform="translate(89.7776, 4.0000)" x="0.0000" y="-2.0000" width="0.6000" height="4.0000" ry="0.0000" fill="currentColor"/>
<rect transform="translate(89.2876, 4.0000)" x="0.0000" y="-2.0000" width="0.1900" height="4.0000" ry="0.0000" fill="currentColor"/>
<rect transform="translate(56.0975, 4.0000)" x="0.0000" y="-2.0000" width="0.1900" height="4.0000" ry="0.0000" fill="currentColor"/>
<rect transform="translate(0.0000, 7.0000)" x="85.3258" y="-0.1000" width="1.8053" height="0.2000" ry="0.1000" fill="currentColor"/>
<rect transform="translate(0.0000, 7.0000)" x="81.4705" y="-0.1000" width="1.9563" height="0.2000" ry="0.1000" fill="currentColor"/>
<rect transform="translate(0.0000, 7.0000)" x="61.5467" y="-0.1000" width="1.9563" height="0.2000" ry="0.1000" fill="currentColor"/>
<rect transform="translate(0.0000, 7.0000)" x="57.0337" y="-0.1000" width="1.9563" height="0.2000" ry="0.1000" fill="currentColor"/>
<rect transform="translate(0.0000, 7.0000)" x="52.7255" y="-0.1000" width="1.9563" height="0.2000" ry="0.1000" fill="currentColor"/>
<rect transform="translate(0.0000, 7.0000)" x="44.9756" y="-0.1000" width="2.0660" height="0.2000" ry="0.1000" fill="currentColor"/>
<rect transform="translate(0.0000, 8.0000)" x="44.9756" y="-0.1000" width="2.0660" height="0.2000" ry="0.1000" fill="currentColor"/>
<rect transform="translate(71.3016, 4.0000)" x="-0.0650" y="-3.1779" width="0.1300" height="2.4918" ry="0.0400" fill="currentColor"/>
<rect transform="translate(70.1274, 4.0000)" x="-0.0650" y="2.1861" width="0.1300" height="3.6915" ry="0.0400" fill="currentColor"/>
<a style="color:inherit;" xlink:href="textedit:///media/common/Documents/Projets_code/liturgie-des-heures_psaumes/NT5.ly:18:69:70">
<text transform="translate(78.2174, 12.5821)" font-family="serif" font-size="2.4696" text-anchor="start" fill="currentColor">
<tspan>Pè-</tspan>
</text>
</a>
<a style="color:inherit;" xlink:href="textedit:///media/common/Documents/Projets_code/liturgie-des-heures_psaumes/NT5.ly:18:61:62">
<text transform="translate(67.7952, 12.5821)" font-family="serif" font-size="2.4696" text-anchor="start" fill="currentColor">
<tspan>Dieu</tspan>
</text>
</a>
<a style="color:inherit;" xlink:href="textedit:///media/common/Documents/Projets_code/liturgie-des-heures_psaumes/NT5.ly:14:75:76">
<path transform="translate(70.0624, 6.0000) scale(0.0040, -0.0040)" d="M218 136c55 0 108 -28 108 -89c0 -71 -55 -121 -102 -149c-35 -21 -75 -34 -116 -34c-55 0 -108 28 -108 89c0 71 55 121 102 149c35 21 75 34 116 34z" fill="currentColor"/>
</a>
<a style="color:inherit;" xlink:href="textedit:///media/common/Documents/Projets_code/liturgie-des-heures_psaumes/NT5.ly:12:75:76">
<path transform="translate(70.0624, 3.5000) scale(0.0040, -0.0040)" d="M218 136c55 0 108 -28 108 -89c0 -71 -55 -121 -102 -149c-35 -21 -75 -34 -116 -34c-55 0 -108 28 -108 89c0 71 55 121 102 149c35 21 75 34 116 34z" fill="currentColor"/>
</a>
<a style="color:inherit;" xlink:href="textedit:///media/common/Documents/Projets_code/liturgie-des-heures_psaumes/NT5.ly:14:83:84">
<path transform="translate(78.2174, 6.5000) scale(0.0040, -0.0040)" d="M218 136c55 0 108 -28 108 -89c0 -71 -55 -121 -102 -149c-35 -21 -75 -34 -116 -34c-55 0 -108 28 -108 89c0 71 55 121 102 149c35 21 75 34 116 34z" fill="currentColor"/>
</a>
<a style="color:inherit;" xlink:href="textedit:///media/common/Documents/Projets_code/liturgie-des-heures_psaumes/NT5.ly:12:83:84">
<path transform="translate(78.2174, 4.5000) scale(0.0040, -0.0040)" d="M218 136c55 0 108 -28 108 -89c0 -71 -55 -121 -102 -149c-35 -21 -75 -34 -116 -34c-55 0 -108 28 -108 89c0 71 55 121 102 149c35 21 75 34 116 34z" fill="currentColor"/>
</a>
<rect transform="translate(74.6234, 4.0000)" x="-0.0650" y="2.6861" width="0.1300" height="3.1249" ry="0.0400" fill="currentColor"/>
<rect transform="translate(75.7976, 4.0000)" x="-0.0650" y="-3.0025" width="0.1300" height="2.8164" ry="0.0400" fill="currentColor"/>
<a style="color:inherit;" xlink:href="textedit:///media/common/Documents/Projets_code/liturgie-des-heures_psaumes/NT5.ly:18:66:67">
<text transform="translate(74.0837, 12.5821)" font-family="serif" font-size="2.4696" text-anchor="start" fill="currentColor">
<tspan>le</tspan>
</text>
</a>
<a style="color:inherit;" xlink:href="textedit:///media/common/Documents/Projets_code/liturgie-des-heures_psaumes/NT5.ly:14:78:79">
<path transform="translate(74.5584, 6.5000) scale(0.0040, -0.0040)" d="M218 136c55 0 108 -28 108 -89c0 -71 -55 -121 -102 -149c-35 -21 -75 -34 -116 -34c-55 0 -108 28 -108 89c0 71 55 121 102 149c35 21 75 34 116 34z" fill="currentColor"/>
</a>
<a style="color:inherit;" xlink:href="textedit:///media/common/Documents/Projets_code/liturgie-des-heures_psaumes/NT5.ly:12:78:79">
<path transform="translate(74.5584, 4.0000) scale(0.0040, -0.0040)" d="M218 136c55 0 108 -28 108 -89c0 -71 -55 -121 -102 -149c-35 -21 -75 -34 -116 -34c-55 0 -108 28 -108 89c0 71 55 121 102 149c35 21 75 34 116 34z" fill="currentColor"/>
</a>
<a style="color:inherit;" xlink:href="textedit:///media/common/Documents/Projets_code/liturgie-des-heures_psaumes/NT5.ly:18:55:56">
<text transform="translate(61.1933, 12.5821)" font-family="serif" font-size="2.4696" text-anchor="start" fill="currentColor">
<tspan>re</tspan>
</text>
</a>
<a style="color:inherit;" xlink:href="textedit:///media/common/Documents/Projets_code/liturgie-des-heures_psaumes/NT5.ly:14:68:69">
<path transform="translate(61.8728, 7.0000) scale(0.0040, -0.0040)" d="M218 136c55 0 108 -28 108 -89c0 -71 -55 -121 -102 -149c-35 -21 -75 -34 -116 -34c-55 0 -108 28 -108 89c0 71 55 121 102 149c35 21 75 34 116 34z" fill="currentColor"/>
</a>
<a style="color:inherit;" xlink:href="textedit:///media/common/Documents/Projets_code/liturgie-des-heures_psaumes/NT5.ly:12:68:69">
<path transform="translate(61.8728, 3.0000) scale(0.0040, -0.0040)" d="M218 136c55 0 108 -28 108 -89c0 -71 -55 -121 -102 -149c-35 -21 -75 -34 -116 -34c-55 0 -108 28 -108 89c0 71 55 121 102 149c35 21 75 34 116 34z" fill="currentColor"/>
</a>
<rect transform="translate(63.1120, 4.0000)" x="-0.0650" y="-3.4975" width="0.1300" height="2.3114" ry="0.0400" fill="currentColor"/>
<rect transform="translate(57.4247, 4.0000)" x="-0.0650" y="3.6861" width="0.1300" height="2.3139" ry="0.0400" fill="currentColor"/>
<rect transform="translate(66.4130, 4.0000)" x="-0.0650" y="-3.3687" width="0.1300" height="2.1826" ry="0.0400" fill="currentColor"/>
<a style="color:inherit;" xlink:href="textedit:///media/common/Documents/Projets_code/liturgie-des-heures_psaumes/NT5.ly:18:58:59">
<text transform="translate(64.3065, 12.5821)" font-family="serif" font-size="2.4696" text-anchor="start" fill="currentColor">
<tspan>de</tspan>
</text>
</a>
<a style="color:inherit;" xlink:href="textedit:///media/common/Documents/Projets_code/liturgie-des-heures_psaumes/NT5.ly:14:72:73">
<path transform="translate(65.1738, 5.5000) scale(0.0040, -0.0040)" d="M218 136c55 0 108 -28 108 -89c0 -71 -55 -121 -102 -149c-35 -21 -75 -34 -116 -34c-55 0 -108 28 -108 89c0 71 55 121 102 149c35 21 75 34 116 34z" fill="currentColor"/>
</a>
<a style="color:inherit;" xlink:href="textedit:///media/common/Documents/Projets_code/liturgie-des-heures_psaumes/NT5.ly:12:72:73">
<path transform="translate(65.1738, 3.0000) scale(0.0040, -0.0040)" d="M218 136c55 0 108 -28 108 -89c0 -71 -55 -121 -102 -149c-35 -21 -75 -34 -116 -34c-55 0 -108 28 -108 89c0 71 55 121 102 149c35 21 75 34 116 34z" fill="currentColor"/>
</a>
<rect transform="translate(65.2388, 4.0000)" x="-0.0650" y="1.6861" width="0.1300" height="4.2640" ry="0.0400" fill="currentColor"/>
<rect transform="translate(61.9378, 4.0000)" x="-0.0650" y="3.1861" width="0.1300" height="2.8129" ry="0.0400" fill="currentColor"/>
<a style="color:inherit;" xlink:href="textedit:///media/common/Documents/Projets_code/liturgie-des-heures_psaumes/NT5.ly:12:86:87">
<path transform="translate(78.2174, 4.0000)" stroke-width="0.0800" stroke-linejoin="round" stroke-linecap="round" stroke="currentColor" fill="currentColor" d="M1.6042 -0.5118C2.4375 -1.0095 3.7941 -0.8428 4.4534 -0.1618L4.4534 -0.1618C3.7795 -0.7237 2.4229 -0.8904 1.6042 -0.5118z"/>
</a>
<polygon transform="translate(61.8728, 10.0000)" stroke-linejoin="round" stroke-linecap="round" stroke-width="0.0800" fill="currentColor" stroke="currentColor" points="12.7756 -0.3900 12.7756 0.0100 0.0400 0.2000 0.0400 -0.2000"/>
<polygon transform="translate(63.0470, 0.5000)" stroke-linejoin="round" stroke-linecap="round" stroke-width="0.0800" fill="currentColor" stroke="currentColor" points="12.7756 0.3000 12.7756 0.7000 0.0400 0.2000 0.0400 -0.2000"/>
<path transform="translate(84.0508, 7.0000) scale(0.0040, -0.0040)" d="M216 -312c0 -10 -8 -19 -18 -19s-19 9 -19 19v145l-83 -31v-158c0 -10 -9 -19 -19 -19s-18 9 -18 19v145l-32 -12c-2 -1 -5 -1 -7 -1c-11 0 -20 9 -20 20v60c0 8 5 16 13 19l46 16v160l-32 -11c-2 -1 -5 -1 -7 -1c-11 0 -20 9 -20 20v60c0 8 5 15 13 18l46 17v158
c0 10 8 19 18 19s19 -9 19 -19v-145l83 31v158c0 10 9 19 19 19s18 -9 18 -19v-145l32 12c2 1 5 1 7 1c11 0 20 -9 20 -20v-60c0 -8 -5 -16 -13 -19l-46 -16v-160l32 11c2 1 5 1 7 1c11 0 20 -9 20 -20v-60c0 -8 -5 -15 -13 -18l-46 -17v-158zM96 65v-160l83 30v160z" fill="currentColor"/>
<polygon transform="translate(18.3148, 3.1900)" stroke-linejoin="round" stroke-linecap="round" stroke-width="0.0800" fill="currentColor" stroke="currentColor" points="4.2445 -0.2000 4.2445 0.2000 0.0400 0.2000 0.0400 -0.2000"/>
<polygon transform="translate(17.1406, 8.8100)" stroke-linejoin="round" stroke-linecap="round" stroke-width="0.0800" fill="currentColor" stroke="currentColor" points="4.2445 -0.2000 4.2445 0.2000 0.0400 0.2000 0.0400 -0.2000"/>
<polygon transform="translate(35.0122, 2.0000)" stroke-linejoin="round" stroke-linecap="round" stroke-width="0.0800" fill="currentColor" stroke="currentColor" points="4.7908 -0.0100 4.7908 0.3900 0.0400 0.2000 0.0400 -0.2000"/>
<polygon transform="translate(33.8380, 8.8100)" stroke-linejoin="round" stroke-linecap="round" stroke-width="0.0800" fill="currentColor" stroke="currentColor" points="4.7908 -0.2000 4.7908 0.2000 0.0400 0.2000 0.0400 -0.2000"/>
<polygon transform="translate(51.7215, 1.1900)" stroke-linejoin="round" stroke-linecap="round" stroke-width="0.0800" fill="currentColor" stroke="currentColor" points="2.5942 -0.2000 2.5942 0.2000 0.0400 0.2000 0.0400 -0.2000"/>
<polygon transform="translate(50.5473, 9.1900)" stroke-linejoin="round" stroke-linecap="round" stroke-width="0.0800" fill="currentColor" stroke="currentColor" points="2.5942 0.1100 2.5942 0.5100 0.0400 0.2000 0.0400 -0.2000"/>
<a style="color:inherit;" xlink:href="textedit:///media/common/Documents/Projets_code/liturgie-des-heures_psaumes/NT5.ly:12:88:89">
<path transform="translate(81.7966, 5.0000) scale(0.0040, -0.0040)" d="M218 136c55 0 108 -28 108 -89c0 -71 -55 -121 -102 -149c-35 -21 -75 -34 -116 -34c-55 0 -108 28 -108 89c0 71 55 121 102 149c35 21 75 34 116 34z" fill="currentColor"/>
</a>
<rect transform="translate(78.2824, 4.0000)" x="-0.0650" y="2.6861" width="0.1300" height="2.3139" ry="0.0400" fill="currentColor"/>
<rect transform="translate(79.4566, 4.0000)" x="-0.0650" y="-3.0000" width="0.1300" height="3.3139" ry="0.0400" fill="currentColor"/>
<rect transform="translate(85.5658, 4.0000)" x="-0.0650" y="3.1861" width="0.1300" height="2.3139" ry="0.0400" fill="currentColor"/>
<rect transform="translate(86.7400, 4.0000)" x="-0.0650" y="-3.0000" width="0.1300" height="3.3139" ry="0.0400" fill="currentColor"/>
<a style="color:inherit;" xlink:href="textedit:///media/common/Documents/Projets_code/liturgie-des-heures_psaumes/NT5.ly:18:73:74">
<text transform="translate(84.4287, 12.5821)" font-family="serif" font-size="2.4696" text-anchor="start" fill="currentColor">
<tspan>re.</tspan>
</text>
</a>
<a style="color:inherit;" xlink:href="textedit:///media/common/Documents/Projets_code/liturgie-des-heures_psaumes/NT5.ly:14:94:95">
<path transform="translate(85.5008, 7.0000) scale(0.0040, -0.0040)" d="M218 136c55 0 108 -28 108 -89c0 -71 -55 -121 -102 -149c-35 -21 -75 -34 -116 -34c-55 0 -108 28 -108 89c0 71 55 121 102 149c35 21 75 34 116 34z" fill="currentColor"/>
</a>
<a style="color:inherit;" xlink:href="textedit:///media/common/Documents/Projets_code/liturgie-des-heures_psaumes/NT5.ly:12:94:95">
<path transform="translate(85.5008, 4.5000) scale(0.0040, -0.0040)" d="M218 136c55 0 108 -28 108 -89c0 -71 -55 -121 -102 -149c-35 -21 -75 -34 -116 -34c-55 0 -108 28 -108 89c0 71 55 121 102 149c35 21 75 34 116 34z" fill="currentColor"/>
</a>
<rect transform="translate(81.8616, 4.0000)" x="-0.0650" y="3.6861" width="0.1300" height="2.3139" ry="0.0400" fill="currentColor"/>
<rect transform="translate(83.0358, 4.0000)" x="-0.0650" y="-2.5000" width="0.1300" height="3.3139" ry="0.0400" fill="currentColor"/>
<a style="color:inherit;" xlink:href="textedit:///media/common/Documents/Projets_code/liturgie-des-heures_psaumes/NT5.ly:14:88:89">
<path transform="translate(81.7966, 7.5000) scale(0.0040, -0.0040)" d="M218 136c55 0 108 -28 108 -89c0 -71 -55 -121 -102 -149c-35 -21 -75 -34 -116 -34c-55 0 -108 28 -108 89c0 71 55 121 102 149c35 21 75 34 116 34z" fill="currentColor"/>
</a>
<a style="color:inherit;" xlink:href="textedit:///media/common/Documents/Projets_code/liturgie-des-heures_psaumes/NT5.ly:18:21:22">
<text transform="translate(24.4629, 12.5821)" font-family="serif" font-size="2.4696" text-anchor="start" fill="currentColor">
<tspan>Christ</tspan>
</text>
</a>
<rect transform="translate(27.7340, 4.0000)" x="-0.0650" y="2.6861" width="0.1300" height="2.3139" ry="0.0400" fill="currentColor"/>
<rect transform="translate(28.9082, 4.0000)" x="-0.0650" y="-3.0000" width="0.1300" height="3.3139" ry="0.0400" fill="currentColor"/>
<a style="color:inherit;" xlink:href="textedit:///media/common/Documents/Projets_code/liturgie-des-heures_psaumes/NT5.ly:12:40:41">
<path transform="translate(33.8380, 5.0000) scale(0.0040, -0.0040)" d="M218 136c55 0 108 -28 108 -89c0 -71 -55 -121 -102 -149c-35 -21 -75 -34 -116 -34c-55 0 -108 28 -108 89c0 71 55 121 102 149c35 21 75 34 116 34z" fill="currentColor"/>
</a>
<a style="color:inherit;" xlink:href="textedit:///media/common/Documents/Projets_code/liturgie-des-heures_psaumes/NT5.ly:14:34:35">
<path transform="translate(27.6690, 6.5000) scale(0.0040, -0.0040)" d="M218 136c55 0 108 -28 108 -89c0 -71 -55 -121 -102 -149c-35 -21 -75 -34 -116 -34c-55 0 -108 28 -108 89c0 71 55 121 102 149c35 21 75 34 116 34z" fill="currentColor"/>
</a>
<a style="color:inherit;" xlink:href="textedit:///media/common/Documents/Projets_code/liturgie-des-heures_psaumes/NT5.ly:12:34:35">
<path transform="translate(27.6690, 4.5000) scale(0.0040, -0.0040)" d="M218 136c55 0 108 -28 108 -89c0 -71 -55 -121 -102 -149c-35 -21 -75 -34 -116 -34c-55 0 -108 28 -108 89c0 71 55 121 102 149c35 21 75 34 116 34z" fill="currentColor"/>
</a>
<rect transform="translate(21.3601, 4.0000)" x="-0.0650" y="2.6861" width="0.1300" height="2.1239" ry="0.0400" fill="currentColor"/>
<rect transform="translate(39.7780, 4.0000)" x="-0.0650" y="-1.8126" width="0.1300" height="3.1265" ry="0.0400" fill="currentColor"/>
<a style="color:inherit;" xlink:href="textedit:///media/common/Documents/Projets_code/liturgie-des-heures_psaumes/NT5.ly:18:32:33">
<text transform="translate(36.8009, 12.5821)" font-family="serif" font-size="2.4696" text-anchor="start" fill="currentColor">
<tspan>Sei-</tspan>
</text>
</a>
<a style="color:inherit;" xlink:href="textedit:///media/common/Documents/Projets_code/liturgie-des-heures_psaumes/NT5.ly:12:46:47">
<path transform="translate(38.5388, 5.5000) scale(0.0040, -0.0040)" d="M218 136c55 0 108 -28 108 -89c0 -71 -55 -121 -102 -149c-35 -21 -75 -34 -116 -34c-55 0 -108 28 -108 89c0 71 55 121 102 149c35 21 75 34 116 34z" fill="currentColor"/>
</a>
<rect transform="translate(33.9030, 4.0000)" x="-0.0650" y="2.6861" width="0.1300" height="2.1239" ry="0.0400" fill="currentColor"/>
<rect transform="translate(35.0772, 4.0000)" x="-0.0650" y="-1.9974" width="0.1300" height="2.8113" ry="0.0400" fill="currentColor"/>
<a style="color:inherit;" xlink:href="textedit:///media/common/Documents/Projets_code/liturgie-des-heures_psaumes/NT5.ly:18:28:29">
<text transform="translate(32.6293, 12.5821)" font-family="serif" font-size="2.4696" text-anchor="start" fill="currentColor">
<tspan>est</tspan>
</text>
</a>
<a style="color:inherit;" xlink:href="textedit:///media/common/Documents/Projets_code/liturgie-des-heures_psaumes/NT5.ly:14:40:41">
<path transform="translate(33.8380, 6.5000) scale(0.0040, -0.0040)" d="M218 136c55 0 108 -28 108 -89c0 -71 -55 -121 -102 -149c-35 -21 -75 -34 -116 -34c-55 0 -108 28 -108 89c0 71 55 121 102 149c35 21 75 34 116 34z" fill="currentColor"/>
</a>
<a style="color:inherit;" xlink:href="textedit:///media/common/Documents/Projets_code/liturgie-des-heures_psaumes/NT5.ly:14:26:27">
<path transform="translate(17.1406, 6.5000) scale(0.0040, -0.0040)" d="M218 136c55 0 108 -28 108 -89c0 -71 -55 -121 -102 -149c-35 -21 -75 -34 -116 -34c-55 0 -108 28 -108 89c0 71 55 121 102 149c35 21 75 34 116 34z" fill="currentColor"/>
</a>
<rect transform="translate(18.3798, 4.0000)" x="-0.0650" y="-0.8100" width="0.1300" height="3.1239" ry="0.0400" fill="currentColor"/>
<a style="color:inherit;" xlink:href="textedit:///media/common/Documents/Projets_code/liturgie-des-heures_psaumes/NT5.ly:18:13:14">
<text transform="translate(16.1538, 12.5821)" font-family="serif" font-size="2.4696" text-anchor="start" fill="currentColor">
<tspan>Jé-</tspan>
</text>
</a>
<a style="color:inherit;" xlink:href="textedit:///media/common/Documents/Projets_code/liturgie-des-heures_psaumes/NT5.ly:10:27:28">
<path transform="translate(13.6724, 4.0000) scale(0.0040, -0.0040)" d="M150 477c-29 0 -59 -8 -59 -33c0 -22 36 -25 36 -47c0 -32 -26 -58 -58 -58s-57 26 -57 58c0 65 67 103 138 103c91 0 169 -33 169 -114c0 -43 -4 -82 -42 -100c-9 -4 -14 -12 -14 -21s5 -18 14 -22c41 -19 56 -57 56 -103c0 -92 -79 -140 -179 -140
c-79 0 -154 42 -154 113c0 36 30 66 66 66s65 -30 65 -66c0 -25 -40 -28 -40 -53c0 -27 32 -37 63 -37c49 0 63 61 63 117v16c0 54 -2 94 -50 94h-80c-10 0 -14 8 -14 15s4 14 14 14h80c49 0 50 43 50 99v8c0 54 -18 91 -67 91z" fill="currentColor"/>
<path transform="translate(13.5358, 6.0160) scale(0.0040, -0.0040)" d="M196 117h117c0 -48 27 -94 72 -94c8 0 12 -5 12 -11s-4 -12 -12 -12c-44 0 -87 13 -131 13s-87 -13 -131 -13c-8 0 -12 6 -12 12s4 11 12 11c45 0 73 46 73 94zM204 307c22 14 44 29 60 50c11 15 19 33 27 50c2 4 5 6 9 6c6 0 13 -5 13 -14v-245h72c10 0 15 -7 15 -14
s-5 -15 -15 -15h-72v-8h-117v8h-167c-23 0 -31 14 -31 23c0 3 1 5 2 6c80 93 138 207 138 330c0 10 7 19 16 16c23 -7 47 -13 71 -13s48 6 71 13c14 4 23 -9 17 -16l-284 -330h167v131c0 8 1 17 8 22z" fill="currentColor"/>
</a>
<a style="color:inherit;" xlink:href="textedit:///media/common/Documents/Projets_code/liturgie-des-heures_psaumes/NT5.ly:10:11:12">
</a>
<path transform="translate(9.3358, 5.0000) scale(0.0040, -0.0040)" d="M266 -635h-6c-108 0 -195 88 -195 197c0 58 53 103 112 103c54 0 95 -47 95 -103c0 -52 -43 -95 -95 -95c-11 0 -21 2 -31 6c26 -39 68 -65 117 -65h4zM461 -203c68 24 113 95 113 164c0 90 -66 179 -173 190c24 -116 46 -231 60 -354zM74 28c0 -135 129 -247 264 -247
c28 0 55 2 82 6c-14 127 -37 245 -63 364c-79 -8 -124 -61 -124 -119c0 -44 25 -91 81 -123c5 -5 7 -10 7 -15c0 -11 -10 -22 -22 -22c-3 0 -6 1 -9 2c-80 43 -117 115 -117 185c0 88 58 174 160 197c-14 58 -29 117 -46 175c-107 -121 -213 -243 -213 -403zM335 -262
c-188 0 -333 172 -333 374c0 177 131 306 248 441c-19 62 -37 125 -45 190c-6 52 -7 104 -7 156c0 115 55 224 149 292c6 5 14 5 20 0c71 -84 133 -245 133 -358c0 -143 -86 -255 -180 -364c21 -68 39 -138 56 -207c4 0 9 1 13 1c155 0 256 -128 256 -261
c0 -76 -33 -154 -107 -210c-22 -17 -47 -28 -73 -36c3 -35 5 -70 5 -105c0 -19 -1 -39 -2 -58c-7 -119 -88 -225 -202 -228l1 43c93 2 153 92 159 191c1 18 2 37 2 55c0 31 -1 61 -4 92c-29 -5 -58 -8 -89 -8zM428 916c0 55 -4 79 -20 129c-99 -48 -162 -149 -162 -259
c0 -74 18 -133 36 -194c80 97 146 198 146 324z" fill="currentColor"/>
<rect transform="translate(17.2056, 4.0000)" x="-0.0650" y="2.6861" width="0.1300" height="2.1239" ry="0.0400" fill="currentColor"/>
<a style="color:inherit;" xlink:href="textedit:///media/common/Documents/Projets_code/liturgie-des-heures_psaumes/NT5.ly:12:26:27">
<path transform="translate(17.1406, 6.5000) scale(0.0040, -0.0040)" d="M218 136c55 0 108 -28 108 -89c0 -71 -55 -121 -102 -149c-35 -21 -75 -34 -116 -34c-55 0 -108 28 -108 89c0 71 55 121 102 149c35 21 75 34 116 34z" fill="currentColor"/>
</a>
<rect transform="translate(22.5343, 4.0000)" x="-0.0650" y="-0.8100" width="0.1300" height="3.1239" ry="0.0400" fill="currentColor"/>
<a style="color:inherit;" xlink:href="textedit:///media/common/Documents/Projets_code/liturgie-des-heures_psaumes/NT5.ly:18:17:18">
<text transform="translate(19.8815, 12.5821)" font-family="serif" font-size="2.4696" text-anchor="start" fill="currentColor">
<tspan>sus</tspan>
</text>
</a>
<a style="color:inherit;" xlink:href="textedit:///media/common/Documents/Projets_code/liturgie-des-heures_psaumes/NT5.ly:14:31:32">
<path transform="translate(21.2951, 6.5000) scale(0.0040, -0.0040)" d="M218 136c55 0 108 -28 108 -89c0 -71 -55 -121 -102 -149c-35 -21 -75 -34 -116 -34c-55 0 -108 28 -108 89c0 71 55 121 102 149c35 21 75 34 116 34z" fill="currentColor"/>
</a>
<a style="color:inherit;" xlink:href="textedit:///media/common/Documents/Projets_code/liturgie-des-heures_psaumes/NT5.ly:12:31:32">
<path transform="translate(21.2951, 6.5000) scale(0.0040, -0.0040)" d="M218 136c55 0 108 -28 108 -89c0 -71 -55 -121 -102 -149c-35 -21 -75 -34 -116 -34c-55 0 -108 28 -108 89c0 71 55 121 102 149c35 21 75 34 116 34z" fill="currentColor"/>
</a>
<a style="color:inherit;" xlink:href="textedit:///media/common/Documents/Projets_code/liturgie-des-heures_psaumes/NT5.ly:14:46:47">
<path transform="translate(38.5388, 6.5000) scale(0.0040, -0.0040)" d="M218 136c55 0 108 -28 108 -89c0 -71 -55 -121 -102 -149c-35 -21 -75 -34 -116 -34c-55 0 -108 28 -108 89c0 71 55 121 102 149c35 21 75 34 116 34z" fill="currentColor"/>
</a>
<a style="color:inherit;" xlink:href="textedit:///media/common/Documents/Projets_code/liturgie-des-heures_psaumes/NT5.ly:12:59:60">
<path transform="translate(53.0515, 4.5000) scale(0.0040, -0.0040)" d="M218 136c55 0 108 -28 108 -89c0 -71 -55 -121 -102 -149c-35 -21 -75 -34 -116 -34c-55 0 -108 28 -108 89c0 71 55 121 102 149c35 21 75 34 116 34z" fill="currentColor"/>
</a>
<rect transform="translate(50.6123, 4.0000)" x="-0.0650" y="2.6861" width="0.1300" height="2.5115" ry="0.0400" fill="currentColor"/>
<a style="color:inherit;" xlink:href="textedit:///media/common/Documents/Projets_code/liturgie-des-heures_psaumes/NT5.ly:14:59:60">
<path transform="translate(53.0515, 7.0000) scale(0.0040, -0.0040)" d="M218 136c55 0 108 -28 108 -89c0 -71 -55 -121 -102 -149c-35 -21 -75 -34 -116 -34c-55 0 -108 28 -108 89c0 71 55 121 102 149c35 21 75 34 116 34z" fill="currentColor"/>
</a>
<rect transform="translate(51.7865, 4.0000)" x="-0.0650" y="-2.8100" width="0.1300" height="3.1239" ry="0.0400" fill="currentColor"/>
<a style="color:inherit;" xlink:href="textedit:///media/common/Documents/Projets_code/liturgie-des-heures_psaumes/NT5.ly:18:44:45">
<text transform="translate(50.4654, 12.5821)" font-family="serif" font-size="2.4696" text-anchor="start" fill="currentColor">
<tspan>à</tspan>
</text>
</a>
<a style="color:inherit;" xlink:href="textedit:///media/common/Documents/Projets_code/liturgie-des-heures_psaumes/NT5.ly:14:55:56">
<path transform="translate(50.5473, 6.5000) scale(0.0040, -0.0040)" d="M218 136c55 0 108 -28 108 -89c0 -71 -55 -121 -102 -149c-35 -21 -75 -34 -116 -34c-55 0 -108 28 -108 89c0 71 55 121 102 149c35 21 75 34 116 34z" fill="currentColor"/>
</a>
<rect transform="translate(58.5989, 4.0000)" x="-0.0650" y="-4.0000" width="0.1300" height="2.8139" ry="0.0400" fill="currentColor"/>
<a style="color:inherit;" xlink:href="textedit:///media/common/Documents/Projets_code/liturgie-des-heures_psaumes/NT5.ly:18:49:50">
<text transform="translate(55.2804, 12.5821)" font-family="serif" font-size="2.4696" text-anchor="start" fill="currentColor">
<tspan>gloi-</tspan>
</text>
</a>
<a style="color:inherit;" xlink:href="textedit:///media/common/Documents/Projets_code/liturgie-des-heures_psaumes/NT5.ly:14:64:65">
<path transform="translate(57.3597, 7.5000) scale(0.0040, -0.0040)" d="M218 136c55 0 108 -28 108 -89c0 -71 -55 -121 -102 -149c-35 -21 -75 -34 -116 -34c-55 0 -108 28 -108 89c0 71 55 121 102 149c35 21 75 34 116 34z" fill="currentColor"/>
</a>
<a style="color:inherit;" xlink:href="textedit:///media/common/Documents/Projets_code/liturgie-des-heures_psaumes/NT5.ly:12:64:65">
<path transform="translate(57.3597, 3.0000) scale(0.0040, -0.0040)" d="M218 136c55 0 108 -28 108 -89c0 -71 -55 -121 -102 -149c-35 -21 -75 -34 -116 -34c-55 0 -108 28 -108 89c0 71 55 121 102 149c35 21 75 34 116 34z" fill="currentColor"/>
</a>
<a style="color:inherit;" xlink:href="textedit:///media/common/Documents/Projets_code/liturgie-des-heures_psaumes/NT5.ly:12:55:56">
<path transform="translate(50.5473, 4.5000) scale(0.0040, -0.0040)" d="M218 136c55 0 108 -28 108 -89c0 -71 -55 -121 -102 -149c-35 -21 -75 -34 -116 -34c-55 0 -108 28 -108 89c0 71 55 121 102 149c35 21 75 34 116 34z" fill="currentColor"/>
</a>
<rect transform="translate(53.1165, 4.0000)" x="-0.0650" y="3.1861" width="0.1300" height="2.3062" ry="0.0400" fill="currentColor"/>
<rect transform="translate(54.2908, 4.0000)" x="-0.0650" y="-2.8100" width="0.1300" height="3.1239" ry="0.0400" fill="currentColor"/>
<a style="color:inherit;" xlink:href="textedit:///media/common/Documents/Projets_code/liturgie-des-heures_psaumes/NT5.ly:18:46:47">
<text transform="translate(52.5769, 12.5821)" font-family="serif" font-size="2.4696" text-anchor="start" fill="currentColor">
<tspan>la</tspan>
</text>
</a>
<a style="color:inherit;" xlink:href="textedit:///media/common/Documents/Projets_code/liturgie-des-heures_psaumes/NT5.ly:12:51:52">
<path transform="translate(45.3200, 6.0000) scale(0.0040, -0.0040)" d="M314 65c0 24 -21 41 -42 41c-4 0 -8 0 -12 -1c-31 -9 -78 -40 -115 -64s-84 -53 -104 -78c-7 -8 -10 -18 -10 -28c0 -24 21 -41 42 -41c4 0 8 0 12 1c31 9 77 40 114 64s84 53 104 78c7 8 11 18 11 28zM262 136c46 0 82 -21 82 -71c0 -19 -4 -39 -10 -57
c-12 -37 -32 -72 -64 -94c-53 -36 -113 -50 -187 -50c-46 0 -83 21 -83 71c0 19 5 39 11 57c12 37 31 72 63 94c53 36 114 50 188 50z" fill="currentColor"/>
</a>
<a style="color:inherit;" xlink:href="textedit:///media/common/Documents/Projets_code/liturgie-des-heures_psaumes/NT5.ly:14:51:52">
<path transform="translate(45.3200, 8.0000) scale(0.0040, -0.0040)" d="M314 65c0 24 -21 41 -42 41c-4 0 -8 0 -12 -1c-31 -9 -78 -40 -115 -64s-84 -53 -104 -78c-7 -8 -10 -18 -10 -28c0 -24 21 -41 42 -41c4 0 8 0 12 1c31 9 77 40 114 64s84 53 104 78c7 8 11 18 11 28zM262 136c46 0 82 -21 82 -71c0 -19 -4 -39 -10 -57
c-12 -37 -32 -72 -64 -94c-53 -36 -113 -50 -187 -50c-46 0 -83 21 -83 71c0 19 5 39 11 57c12 37 31 72 63 94c53 36 114 50 188 50z" fill="currentColor"/>
</a>
<a style="color:inherit;" xlink:href="textedit:///media/common/Documents/Projets_code/liturgie-des-heures_psaumes/NT5.ly:18:37:38">
<text transform="translate(42.0310, 12.5821)" font-family="serif" font-size="2.4696" text-anchor="start" fill="currentColor">
<tspan>gneur,</tspan>
</text>
</a>
<rect transform="translate(46.6323, 4.0000)" x="-0.0650" y="-1.5000" width="0.1300" height="3.2410" ry="0.0400" fill="currentColor"/>
<rect transform="translate(45.3850, 4.0000)" x="-0.0650" y="4.2590" width="0.1300" height="2.2410" ry="0.0400" fill="currentColor"/>
<rect transform="translate(38.6038, 4.0000)" x="-0.0650" y="2.6861" width="0.1300" height="2.1239" ry="0.0400" fill="currentColor"/>
</svg>
