<svg xmlns="http://www.w3.org/2000/svg" xmlns:xlink="http://www.w3.org/1999/xlink" version="1.2" width="126.30mm" height="15.39mm" viewBox="8.5358 -0.0000 71.8742 8.7600">
<style text="style/css">
<![CDATA[
tspan { white-space: pre; }
]]>
</style>
<line transform="translate(8.5358, 7.2100)" stroke-linejoin="round" stroke-linecap="round" stroke-width="0.1000" stroke="currentColor" x1="0.0500" y1="-0.0000" x2="71.8242" y2="-0.0000"/>
<line transform="translate(8.5358, 6.2100)" stroke-linejoin="round" stroke-linecap="round" stroke-width="0.1000" stroke="currentColor" x1="0.0500" y1="-0.0000" x2="71.8242" y2="-0.0000"/>
<line transform="translate(8.5358, 5.2100)" stroke-linejoin="round" stroke-linecap="round" stroke-width="0.1000" stroke="currentColor" x1="0.0500" y1="-0.0000" x2="71.8242" y2="-0.0000"/>
<line transform="translate(8.5358, 4.2100)" stroke-linejoin="round" stroke-linecap="round" stroke-width="0.1000" stroke="currentColor" x1="0.0500" y1="-0.0000" x2="71.8242" y2="-0.0000"/>
<line transform="translate(8.5358, 3.2100)" stroke-linejoin="round" stroke-linecap="round" stroke-width="0.1000" stroke="currentColor" x1="0.0500" y1="-0.0000" x2="71.8242" y2="-0.0000"/>
<rect transform="translate(65.9787, 5.2100)" x="0.0000" y="-2.0000" width="0.1900" height="4.0000" ry="0.0000" fill="currentColor"/>
<rect transform="translate(32.8257, 5.2100)" x="0.0000" y="-2.0000" width="0.1900" height="4.0000" ry="0.0000" fill="currentColor"/>
<rect transform="translate(79.8100, 5.2100)" x="0.0000" y="-2.0000" width="0.6000" height="4.0000" ry="0.0000" fill="currentColor"/>
<rect transform="translate(79.3200, 5.2100)" x="0.0000" y="-2.0000" width="0.1900" height="4.0000" ry="0.0000" fill="currentColor"/>
<rect transform="translate(52.3874, 5.2100)" x="0.0000" y="-2.0000" width="0.1900" height="4.0000" ry="0.0000" fill="currentColor"/>
<a style="color:inherit;" xlink:href="textedit:///media/common/Documents/Projets_code/liturgie-des-heures_psaumes/psaume138-II.ly:26:22:23">
<path transform="translate(59.7375, 6.2100) scale(0.0040, -0.0040)" d="M218 136c55 0 108 -28 108 -89c0 -71 -55 -121 -102 -149c-35 -21 -75 -34 -116 -34c-55 0 -108 28 -108 89c0 71 55 121 102 149c35 21 75 34 116 34z" fill="currentColor"/>
</a>
<a style="color:inherit;" xlink:href="textedit:///media/common/Documents/Projets_code/liturgie-des-heures_psaumes/psaume138-II.ly:26:35:36">
<path transform="translate(62.7397, 6.7100) scale(0.0040, -0.0040)" d="M218 136c55 0 108 -28 108 -89c0 -71 -55 -121 -102 -149c-35 -21 -75 -34 -116 -34c-55 0 -108 28 -108 89c0 71 55 121 102 149c35 21 75 34 116 34z" fill="currentColor"/>
</a>
<rect transform="translate(63.9790, 5.2100)" x="-0.0650" y="-2.0000" width="0.1300" height="3.3139" ry="0.0400" fill="currentColor"/>
<a style="color:inherit;" xlink:href="textedit:///media/common/Documents/Projets_code/liturgie-des-heures_psaumes/psaume138-II.ly:30:13:14">
<path transform="translate(67.0687, 5.7100) scale(0.0040, -0.0040)" d="M245 136c95 0 228 -35 244 -121v140c0 14 11 25 25 25s25 -11 25 -25v-310c0 -14 -11 -25 -25 -25s-25 11 -25 25v140c-16 -86 -149 -121 -244 -121s-228 35 -244 121v-140c0 -14 -11 -25 -25 -25s-25 11 -25 25v310c0 14 11 25 25 25s25 -11 25 -25v-140
c16 86 149 121 244 121zM213 112c-50 0 -69 -43 -69 -88c0 -77 57 -136 134 -136c50 0 69 43 69 88c0 77 -57 136 -134 136z" fill="currentColor"/>
</a>
<rect transform="translate(50.4591, 5.2100)" x="-0.0650" y="-3.0000" width="0.1300" height="3.3139" ry="0.0400" fill="currentColor"/>
<a style="color:inherit;" xlink:href="textedit:///media/common/Documents/Projets_code/liturgie-des-heures_psaumes/psaume138-II.ly:26:13:14">
<path transform="translate(53.4774, 5.7100) scale(0.0040, -0.0040)" d="M245 136c95 0 228 -35 244 -121v140c0 14 11 25 25 25s25 -11 25 -25v-310c0 -14 -11 -25 -25 -25s-25 11 -25 25v140c-16 -86 -149 -121 -244 -121s-228 35 -244 121v-140c0 -14 -11 -25 -25 -25s-25 11 -25 25v310c0 14 11 25 25 25s25 -11 25 -25v-140
c16 86 149 121 244 121zM213 112c-50 0 -69 -43 -69 -88c0 -77 57 -136 134 -136c50 0 69 43 69 88c0 77 -57 136 -134 136z" fill="currentColor"/>
</a>
<text transform="translate(53.4174, 1.6330)" font-family="serif" font-size="1.3860" text-anchor="start" fill="currentColor">
<tspan>(3)</tspan>
</text>
<line transform="translate(52.3874, 0.0800)" stroke-linejoin="round" stroke-linecap="round" stroke-width="0.1600" stroke="currentColor" x1="13.6713" y1="-0.0000" x2="13.6713" y2="-0.0000"/>
<line transform="translate(52.3874, 0.0800)" stroke-linejoin="round" stroke-linecap="round" stroke-width="0.1600" stroke="currentColor" x1="0.1100" y1="-0.0000" x2="0.1100" y2="2.0000"/>
<line transform="translate(52.3874, 0.0800)" stroke-linejoin="round" stroke-linecap="round" stroke-width="0.1600" stroke="currentColor" x1="0.1100" y1="-0.0000" x2="13.6713" y2="-0.0000"/>
<rect transform="translate(77.3203, 5.2100)" x="-0.0650" y="-1.5000" width="0.1300" height="3.3139" ry="0.0400" fill="currentColor"/>
<a style="color:inherit;" xlink:href="textedit:///media/common/Documents/Projets_code/liturgie-des-heures_psaumes/psaume138-II.ly:30:35:36">
<path transform="translate(76.0811, 7.2100) scale(0.0040, -0.0040)" d="M218 136c55 0 108 -28 108 -89c0 -71 -55 -121 -102 -149c-35 -21 -75 -34 -116 -34c-55 0 -108 28 -108 89c0 71 55 121 102 149c35 21 75 34 116 34z" fill="currentColor"/>
</a>
<a style="color:inherit;" xlink:href="textedit:///media/common/Documents/Projets_code/liturgie-des-heures_psaumes/psaume138-II.ly:30:22:23">
<path transform="translate(73.3288, 6.2100) scale(0.0040, -0.0040)" d="M218 136c55 0 108 -28 108 -89c0 -71 -55 -121 -102 -149c-35 -21 -75 -34 -116 -34c-55 0 -108 28 -108 89c0 71 55 121 102 149c35 21 75 34 116 34z" fill="currentColor"/>
</a>
<a style="color:inherit;" xlink:href="textedit:///media/common/Documents/Projets_code/liturgie-des-heures_psaumes/psaume138-II.ly:21:23:24">
<path transform="translate(20.5959, 5.7100) scale(0.0040, -0.0040)" d="M213 112c-50 0 -69 -43 -69 -88c0 -77 57 -136 134 -136c50 0 69 43 69 88c0 77 -57 136 -134 136zM491 0c0 -43 -34 -75 -72 -96c-53 -29 -114 -40 -174 -40s-120 11 -173 40c-38 21 -72 53 -72 96s34 75 72 96c53 29 113 40 173 40s121 -11 174 -40
c38 -21 72 -53 72 -96z" fill="currentColor"/>
</a>
<a style="color:inherit;" xlink:href="textedit:///media/common/Documents/Projets_code/liturgie-des-heures_psaumes/psaume138-II.ly:21:27:28">
<path transform="translate(26.6560, 6.2100) scale(0.0040, -0.0040)" d="M218 136c55 0 108 -28 108 -89c0 -71 -55 -121 -102 -149c-35 -21 -75 -34 -116 -34c-55 0 -108 28 -108 89c0 71 55 121 102 149c35 21 75 34 116 34z" fill="currentColor"/>
</a>
<a style="color:inherit;" xlink:href="textedit:///media/common/Documents/Projets_code/liturgie-des-heures_psaumes/psaume138-II.ly:21:40:41">
<path transform="translate(29.6582, 5.7100) scale(0.0040, -0.0040)" d="M218 136c55 0 108 -28 108 -89c0 -71 -55 -121 -102 -149c-35 -21 -75 -34 -116 -34c-55 0 -108 28 -108 89c0 71 55 121 102 149c35 21 75 34 116 34z" fill="currentColor"/>
</a>
<rect transform="translate(30.8974, 5.2100)" x="-0.0650" y="-3.0000" width="0.1300" height="3.3139" ry="0.0400" fill="currentColor"/>
<a style="color:inherit;" xlink:href="textedit:///media/common/Documents/Projets_code/liturgie-des-heures_psaumes/psaume138-II.ly:23:38:39">
<path transform="translate(49.2199, 5.7100) scale(0.0040, -0.0040)" d="M218 136c55 0 108 -28 108 -89c0 -71 -55 -121 -102 -149c-35 -21 -75 -34 -116 -34c-55 0 -108 28 -108 89c0 71 55 121 102 149c35 21 75 34 116 34z" fill="currentColor"/>
</a>
<a style="color:inherit;" xlink:href="textedit:///media/common/Documents/Projets_code/liturgie-des-heures_psaumes/psaume138-II.ly:19:4:5">
</a>
<path transform="translate(9.3358, 6.2100) scale(0.0040, -0.0040)" d="M266 -635h-6c-108 0 -195 88 -195 197c0 58 53 103 112 103c54 0 95 -47 95 -103c0 -52 -43 -95 -95 -95c-11 0 -21 2 -31 6c26 -39 68 -65 117 -65h4zM461 -203c68 24 113 95 113 164c0 90 -66 179 -173 190c24 -116 46 -231 60 -354zM74 28c0 -135 129 -247 264 -247
c28 0 55 2 82 6c-14 127 -37 245 -63 364c-79 -8 -124 -61 -124 -119c0 -44 25 -91 81 -123c5 -5 7 -10 7 -15c0 -11 -10 -22 -22 -22c-3 0 -6 1 -9 2c-80 43 -117 115 -117 185c0 88 58 174 160 197c-14 58 -29 117 -46 175c-107 -121 -213 -243 -213 -403zM335 -262
c-188 0 -333 172 -333 374c0 177 131 306 248 441c-19 62 -37 125 -45 190c-6 52 -7 104 -7 156c0 115 55 224 149 292c6 5 14 5 20 0c71 -84 133 -245 133 -358c0 -143 -86 -255 -180 -364c21 -68 39 -138 56 -207c4 0 9 1 13 1c155 0 256 -128 256 -261
c0 -76 -33 -154 -107 -210c-22 -17 -47 -28 -73 -36c3 -35 5 -70 5 -105c0 -19 -1 -39 -2 -58c-7 -119 -88 -225 -202 -228l1 43c93 2 153 92 159 191c1 18 2 37 2 55c0 31 -1 61 -4 92c-29 -5 -58 -8 -89 -8zM428 916c0 55 -4 79 -20 129c-99 -48 -162 -149 -162 -259
c0 -74 18 -133 36 -194c80 97 146 198 146 324z" fill="currentColor"/>
<a style="color:inherit;" xlink:href="textedit:///media/common/Documents/Projets_code/liturgie-des-heures_psaumes/psaume138-II.ly:21:13:14">
<path transform="translate(14.3358, 7.2100) scale(0.0040, -0.0040)" d="M245 136c95 0 228 -35 244 -121v140c0 14 11 25 25 25s25 -11 25 -25v-310c0 -14 -11 -25 -25 -25s-25 11 -25 25v140c-16 -86 -149 -121 -244 -121s-228 35 -244 121v-140c0 -14 -11 -25 -25 -25s-25 11 -25 25v310c0 14 11 25 25 25s25 -11 25 -25v-140
c16 86 149 121 244 121zM213 112c-50 0 -69 -43 -69 -88c0 -77 57 -136 134 -136c50 0 69 43 69 88c0 77 -57 136 -134 136z" fill="currentColor"/>
</a>
<a style="color:inherit;" xlink:href="textedit:///media/common/Documents/Projets_code/liturgie-des-heures_psaumes/psaume138-II.ly:23:26:27">
<path transform="translate(46.2359, 5.2100) scale(0.0040, -0.0040)" d="M218 136c55 0 108 -28 108 -89c0 -71 -55 -121 -102 -149c-35 -21 -75 -34 -116 -34c-55 0 -108 28 -108 89c0 71 55 121 102 149c35 21 75 34 116 34z" fill="currentColor"/>
</a>
<a style="color:inherit;" xlink:href="textedit:///media/common/Documents/Projets_code/liturgie-des-heures_psaumes/psaume138-II.ly:23:22:23">
<path transform="translate(40.1758, 4.7100) scale(0.0040, -0.0040)" d="M213 112c-50 0 -69 -43 -69 -88c0 -77 57 -136 134 -136c50 0 69 43 69 88c0 77 -57 136 -134 136zM491 0c0 -43 -34 -75 -72 -96c-53 -29 -114 -40 -174 -40s-120 11 -173 40c-38 21 -72 53 -72 96s34 75 72 96c53 29 113 40 173 40s121 -11 174 -40
c38 -21 72 -53 72 -96z" fill="currentColor"/>
</a>
<a style="color:inherit;" xlink:href="textedit:///media/common/Documents/Projets_code/liturgie-des-heures_psaumes/psaume138-II.ly:23:13:14">
<path transform="translate(33.9157, 5.2100) scale(0.0040, -0.0040)" d="M245 136c95 0 228 -35 244 -121v140c0 14 11 25 25 25s25 -11 25 -25v-310c0 -14 -11 -25 -25 -25s-25 11 -25 25v140c-16 -86 -149 -121 -244 -121s-228 35 -244 121v-140c0 -14 -11 -25 -25 -25s-25 11 -25 25v310c0 14 11 25 25 25s25 -11 25 -25v-140
c16 86 149 121 244 121zM213 112c-50 0 -69 -43 -69 -88c0 -77 57 -136 134 -136c50 0 69 43 69 88c0 77 -57 136 -134 136z" fill="currentColor"/>
</a>
</svg>
