<svg xmlns="http://www.w3.org/2000/svg" xmlns:xlink="http://www.w3.org/1999/xlink" version="1.2" width="89.30mm" height="12.92mm" viewBox="8.5358 -0.0360 50.8176 7.3500">
<style text="style/css">
<![CDATA[
tspan { white-space: pre; }
]]>
</style>
<line transform="translate(8.5358, 5.7640)" stroke-linejoin="round" stroke-linecap="round" stroke-width="0.1000" stroke="currentColor" x1="0.0500" y1="-0.0000" x2="50.7676" y2="-0.0000"/>
<line transform="translate(8.5358, 4.7640)" stroke-linejoin="round" stroke-linecap="round" stroke-width="0.1000" stroke="currentColor" x1="0.0500" y1="-0.0000" x2="50.7676" y2="-0.0000"/>
<line transform="translate(8.5358, 3.7640)" stroke-linejoin="round" stroke-linecap="round" stroke-width="0.1000" stroke="currentColor" x1="0.0500" y1="-0.0000" x2="50.7676" y2="-0.0000"/>
<line transform="translate(8.5358, 2.7640)" stroke-linejoin="round" stroke-linecap="round" stroke-width="0.1000" stroke="currentColor" x1="0.0500" y1="-0.0000" x2="50.7676" y2="-0.0000"/>
<line transform="translate(8.5358, 1.7640)" stroke-linejoin="round" stroke-linecap="round" stroke-width="0.1000" stroke="currentColor" x1="0.0500" y1="-0.0000" x2="50.7676" y2="-0.0000"/>
<rect transform="translate(37.1925, 3.7640)" x="0.0000" y="-2.0000" width="0.1900" height="4.0000" ry="0.0000" fill="currentColor"/>
<rect transform="translate(26.6749, 3.7640)" x="0.0000" y="-2.0000" width="0.1900" height="4.0000" ry="0.0000" fill="currentColor"/>
<rect transform="translate(47.7101, 3.7640)" x="0.0000" y="-2.0000" width="0.1900" height="4.0000" ry="0.0000" fill="currentColor"/>
<rect transform="translate(58.7535, 3.7640)" x="0.0000" y="-2.0000" width="0.6000" height="4.0000" ry="0.0000" fill="currentColor"/>
<rect transform="translate(58.2635, 3.7640)" x="0.0000" y="-2.0000" width="0.1900" height="4.0000" ry="0.0000" fill="currentColor"/>
<a style="color:inherit;" xlink:href="textedit:///media/common/Documents/Projets_code/liturgie-des-heures_psaumes/psaume118-14.ly:25:13:14">
<path transform="translate(48.8001, 4.2640) scale(0.0040, -0.0040)" d="M245 136c95 0 228 -35 244 -121v140c0 14 11 25 25 25s25 -11 25 -25v-310c0 -14 -11 -25 -25 -25s-25 11 -25 25v140c-16 -86 -149 -121 -244 -121s-228 35 -244 121v-140c0 -14 -11 -25 -25 -25s-25 11 -25 25v310c0 14 11 25 25 25s25 -11 25 -25v-140
c16 86 149 121 244 121zM213 112c-50 0 -69 -43 -69 -88c0 -77 57 -136 134 -136c50 0 69 43 69 88c0 77 -57 136 -134 136z" fill="currentColor"/>
</a>
<rect transform="translate(45.7818, 3.7640)" x="-0.0650" y="-3.0000" width="0.1300" height="3.3139" ry="0.0400" fill="currentColor"/>
<a style="color:inherit;" xlink:href="textedit:///media/common/Documents/Projets_code/liturgie-des-heures_psaumes/psaume118-14.ly:23:31:32">
<path transform="translate(44.5426, 4.2640) scale(0.0040, -0.0040)" d="M218 136c55 0 108 -28 108 -89c0 -71 -55 -121 -102 -149c-35 -21 -75 -34 -116 -34c-55 0 -108 28 -108 89c0 71 55 121 102 149c35 21 75 34 116 34z" fill="currentColor"/>
</a>
<rect transform="translate(56.2994, 3.7640)" x="-0.0650" y="-2.5000" width="0.1300" height="3.3139" ry="0.0400" fill="currentColor"/>
<a style="color:inherit;" xlink:href="textedit:///media/common/Documents/Projets_code/liturgie-des-heures_psaumes/psaume118-14.ly:25:30:31">
<path transform="translate(55.0602, 4.7640) scale(0.0040, -0.0040)" d="M218 136c55 0 108 -28 108 -89c0 -71 -55 -121 -102 -149c-35 -21 -75 -34 -116 -34c-55 0 -108 28 -108 89c0 71 55 121 102 149c35 21 75 34 116 34z" fill="currentColor"/>
</a>
<a style="color:inherit;" xlink:href="textedit:///media/common/Documents/Projets_code/liturgie-des-heures_psaumes/psaume118-14.ly:21:13:14">
<path transform="translate(27.7649, 4.7640) scale(0.0040, -0.0040)" d="M245 136c95 0 228 -35 244 -121v140c0 14 11 25 25 25s25 -11 25 -25v-310c0 -14 -11 -25 -25 -25s-25 11 -25 25v140c-16 -86 -149 -121 -244 -121s-228 35 -244 121v-140c0 -14 -11 -25 -25 -25s-25 11 -25 25v310c0 14 11 25 25 25s25 -11 25 -25v-140
c16 86 149 121 244 121zM213 112c-50 0 -69 -43 -69 -88c0 -77 57 -136 134 -136c50 0 69 43 69 88c0 77 -57 136 -134 136z" fill="currentColor"/>
</a>
<a style="color:inherit;" xlink:href="textedit:///media/common/Documents/Projets_code/liturgie-des-heures_psaumes/psaume118-14.ly:19:13:14">
<path transform="translate(17.1759, 4.7640) scale(0.0040, -0.0040)" d="M245 136c95 0 228 -35 244 -121v140c0 14 11 25 25 25s25 -11 25 -25v-310c0 -14 -11 -25 -25 -25s-25 11 -25 25v140c-16 -86 -149 -121 -244 -121s-228 35 -244 121v-140c0 -14 -11 -25 -25 -25s-25 11 -25 25v310c0 14 11 25 25 25s25 -11 25 -25v-140
c16 86 149 121 244 121zM213 112c-50 0 -69 -43 -69 -88c0 -77 57 -136 134 -136c50 0 69 43 69 88c0 77 -57 136 -134 136z" fill="currentColor"/>
</a>
<a style="color:inherit;" xlink:href="textedit:///media/common/Documents/Projets_code/liturgie-des-heures_psaumes/psaume118-14.ly:23:13:14">
<path transform="translate(38.2825, 3.7640) scale(0.0040, -0.0040)" d="M245 136c95 0 228 -35 244 -121v140c0 14 11 25 25 25s25 -11 25 -25v-310c0 -14 -11 -25 -25 -25s-25 11 -25 25v140c-16 -86 -149 -121 -244 -121s-228 35 -244 121v-140c0 -14 -11 -25 -25 -25s-25 11 -25 25v310c0 14 11 25 25 25s25 -11 25 -25v-140
c16 86 149 121 244 121zM213 112c-50 0 -69 -43 -69 -88c0 -77 57 -136 134 -136c50 0 69 43 69 88c0 77 -57 136 -134 136z" fill="currentColor"/>
</a>
<rect transform="translate(24.6751, 3.7640)" x="-0.0650" y="-2.0000" width="0.1300" height="3.3139" ry="0.0400" fill="currentColor"/>
<a style="color:inherit;" xlink:href="textedit:///media/common/Documents/Projets_code/liturgie-des-heures_psaumes/psaume118-14.ly:19:32:33">
<path transform="translate(23.4359, 5.2640) scale(0.0040, -0.0040)" d="M218 136c55 0 108 -28 108 -89c0 -71 -55 -121 -102 -149c-35 -21 -75 -34 -116 -34c-55 0 -108 28 -108 89c0 71 55 121 102 149c35 21 75 34 116 34z" fill="currentColor"/>
</a>
<path transform="translate(9.3358, 4.7640) scale(0.0040, -0.0040)" d="M266 -635h-6c-108 0 -195 88 -195 197c0 58 53 103 112 103c54 0 95 -47 95 -103c0 -52 -43 -95 -95 -95c-11 0 -21 2 -31 6c26 -39 68 -65 117 -65h4zM461 -203c68 24 113 95 113 164c0 90 -66 179 -173 190c24 -116 46 -231 60 -354zM74 28c0 -135 129 -247 264 -247
c28 0 55 2 82 6c-14 127 -37 245 -63 364c-79 -8 -124 -61 -124 -119c0 -44 25 -91 81 -123c5 -5 7 -10 7 -15c0 -11 -10 -22 -22 -22c-3 0 -6 1 -9 2c-80 43 -117 115 -117 185c0 88 58 174 160 197c-14 58 -29 117 -46 175c-107 -121 -213 -243 -213 -403zM335 -262
c-188 0 -333 172 -333 374c0 177 131 306 248 441c-19 62 -37 125 -45 190c-6 52 -7 104 -7 156c0 115 55 224 149 292c6 5 14 5 20 0c71 -84 133 -245 133 -358c0 -143 -86 -255 -180 -364c21 -68 39 -138 56 -207c4 0 9 1 13 1c155 0 256 -128 256 -261
c0 -76 -33 -154 -107 -210c-22 -17 -47 -28 -73 -36c3 -35 5 -70 5 -105c0 -19 -1 -39 -2 -58c-7 -119 -88 -225 -202 -228l1 43c93 2 153 92 159 191c1 18 2 37 2 55c0 31 -1 61 -4 92c-29 -5 -58 -8 -89 -8zM428 916c0 55 -4 79 -20 129c-99 -48 -162 -149 -162 -259
c0 -74 18 -133 36 -194c80 97 146 198 146 324z" fill="currentColor"/>
<a style="color:inherit;" xlink:href="textedit:///media/common/Documents/Projets_code/liturgie-des-heures_psaumes/psaume118-14.ly:17:4:5">
<path transform="translate(12.9558, 3.7640) scale(0.0040, -0.0040)" d="M27 41l-1 -66v-11c0 -22 1 -44 4 -66c45 38 93 80 93 139c0 33 -14 67 -43 67c-31 0 -52 -30 -53 -63zM-15 -138l-12 595c8 5 18 8 27 8s19 -3 27 -8l-7 -345c25 21 58 34 91 34c52 0 89 -48 89 -102c0 -80 -86 -117 -147 -169c-15 -13 -24 -38 -45 -38
c-13 0 -23 11 -23 25z" fill="currentColor"/>
<path transform="translate(13.8759, 2.2640) scale(0.0040, -0.0040)" d="M27 41l-1 -66v-11c0 -22 1 -44 4 -66c45 38 93 80 93 139c0 33 -14 67 -43 67c-31 0 -52 -30 -53 -63zM-15 -138l-12 595c8 5 18 8 27 8s19 -3 27 -8l-7 -345c25 21 58 34 91 34c52 0 89 -48 89 -102c0 -80 -86 -117 -147 -169c-15 -13 -24 -38 -45 -38
c-13 0 -23 11 -23 25z" fill="currentColor"/>
</a>
<rect transform="translate(35.2642, 3.7640)" x="-0.0650" y="-3.0000" width="0.1300" height="3.3139" ry="0.0400" fill="currentColor"/>
<a style="color:inherit;" xlink:href="textedit:///media/common/Documents/Projets_code/liturgie-des-heures_psaumes/psaume118-14.ly:21:31:32">
<path transform="translate(34.0250, 4.2640) scale(0.0040, -0.0040)" d="M218 136c55 0 108 -28 108 -89c0 -71 -55 -121 -102 -149c-35 -21 -75 -34 -116 -34c-55 0 -108 28 -108 89c0 71 55 121 102 149c35 21 75 34 116 34z" fill="currentColor"/>
</a>
</svg>
