<svg xmlns="http://www.w3.org/2000/svg" xmlns:xlink="http://www.w3.org/1999/xlink" version="1.2" width="155.23mm" height="49.19mm" viewBox="7.2258 -0.0220 88.3346 27.9922">
<style text="style/css">
<![CDATA[
tspan { white-space: pre; }
]]>
</style>
<line transform="translate(8.5358, 5.7780)" stroke-linejoin="round" stroke-linecap="round" stroke-width="0.1000" stroke="currentColor" x1="0.0500" y1="-0.0000" x2="86.9746" y2="-0.0000"/>
<line transform="translate(8.5358, 4.7780)" stroke-linejoin="round" stroke-linecap="round" stroke-width="0.1000" stroke="currentColor" x1="0.0500" y1="-0.0000" x2="86.9746" y2="-0.0000"/>
<line transform="translate(8.5358, 3.7780)" stroke-linejoin="round" stroke-linecap="round" stroke-width="0.1000" stroke="currentColor" x1="0.0500" y1="-0.0000" x2="86.9746" y2="-0.0000"/>
<line transform="translate(8.5358, 2.7780)" stroke-linejoin="round" stroke-linecap="round" stroke-width="0.1000" stroke="currentColor" x1="0.0500" y1="-0.0000" x2="86.9746" y2="-0.0000"/>
<line transform="translate(8.5358, 1.7780)" stroke-linejoin="round" stroke-linecap="round" stroke-width="0.1000" stroke="currentColor" x1="0.0500" y1="-0.0000" x2="86.9746" y2="-0.0000"/>
<rect transform="translate(94.9604, 3.7780)" x="0.0000" y="-2.0000" width="0.6000" height="4.0000" ry="0.0000" fill="currentColor"/>
<rect transform="translate(94.4704, 3.7780)" x="0.0000" y="-2.0000" width="0.1900" height="4.0000" ry="0.0000" fill="currentColor"/>
<rect transform="translate(94.9604, 23.2442)" x="0.0000" y="-2.0000" width="0.6000" height="4.0000" ry="0.0000" fill="currentColor"/>
<rect transform="translate(94.4704, 23.2442)" x="0.0000" y="-2.0000" width="0.1900" height="4.0000" ry="0.0000" fill="currentColor"/>
<line transform="translate(8.5358, 25.2442)" stroke-linejoin="round" stroke-linecap="round" stroke-width="0.1000" stroke="currentColor" x1="0.0500" y1="-0.0000" x2="86.9746" y2="-0.0000"/>
<line transform="translate(8.5358, 24.2442)" stroke-linejoin="round" stroke-linecap="round" stroke-width="0.1000" stroke="currentColor" x1="0.0500" y1="-0.0000" x2="86.9746" y2="-0.0000"/>
<line transform="translate(8.5358, 23.2442)" stroke-linejoin="round" stroke-linecap="round" stroke-width="0.1000" stroke="currentColor" x1="0.0500" y1="-0.0000" x2="86.9746" y2="-0.0000"/>
<line transform="translate(8.5358, 22.2442)" stroke-linejoin="round" stroke-linecap="round" stroke-width="0.1000" stroke="currentColor" x1="0.0500" y1="-0.0000" x2="86.9746" y2="-0.0000"/>
<line transform="translate(8.5358, 21.2442)" stroke-linejoin="round" stroke-linecap="round" stroke-width="0.1000" stroke="currentColor" x1="0.0500" y1="-0.0000" x2="86.9746" y2="-0.0000"/>
<rect transform="translate(0.0000, 20.2442)" x="78.8301" y="-0.1000" width="1.9563" height="0.2000" ry="0.1000" fill="currentColor"/>
<rect transform="translate(0.0000, 20.2442)" x="72.8659" y="-0.1000" width="1.9563" height="0.2000" ry="0.1000" fill="currentColor"/>
<rect transform="translate(0.0000, 20.2442)" x="66.4579" y="-0.1000" width="1.9563" height="0.2000" ry="0.1000" fill="currentColor"/>
<rect transform="translate(0.0000, 20.2442)" x="60.6986" y="-0.1000" width="1.9563" height="0.2000" ry="0.1000" fill="currentColor"/>
<rect transform="translate(0.0000, 20.2442)" x="53.8943" y="-0.1000" width="2.0660" height="0.2000" ry="0.1000" fill="currentColor"/>
<rect transform="translate(0.0000, 20.2442)" x="29.4610" y="-0.1000" width="1.9563" height="0.2000" ry="0.1000" fill="currentColor"/>
<rect transform="translate(0.0000, 20.2442)" x="24.1455" y="-0.1000" width="1.9563" height="0.2000" ry="0.1000" fill="currentColor"/>
<rect transform="translate(0.0000, 20.2442)" x="19.7178" y="-0.1000" width="1.9563" height="0.2000" ry="0.1000" fill="currentColor"/>
<rect transform="translate(0.0000, 20.2442)" x="14.0098" y="-0.1000" width="1.9563" height="0.2000" ry="0.1000" fill="currentColor"/>
<rect transform="translate(0.0000, 6.7780)" x="89.8328" y="-0.1000" width="2.0660" height="0.2000" ry="0.1000" fill="currentColor"/>
<rect transform="translate(0.0000, 7.7780)" x="90.0022" y="-0.1000" width="1.8967" height="0.2000" ry="0.1000" fill="currentColor"/>
<rect transform="translate(0.0000, 6.7780)" x="84.3467" y="-0.1000" width="2.0660" height="0.2000" ry="0.1000" fill="currentColor"/>
<rect transform="translate(0.0000, 7.7780)" x="84.3467" y="-0.1000" width="2.0660" height="0.2000" ry="0.1000" fill="currentColor"/>
<rect transform="translate(0.0000, 6.7780)" x="78.8301" y="-0.1000" width="1.9563" height="0.2000" ry="0.1000" fill="currentColor"/>
<rect transform="translate(0.0000, 7.7780)" x="78.8301" y="-0.1000" width="1.9563" height="0.2000" ry="0.1000" fill="currentColor"/>
<rect transform="translate(0.0000, 6.7780)" x="72.8659" y="-0.1000" width="1.9563" height="0.2000" ry="0.1000" fill="currentColor"/>
<rect transform="translate(0.0000, 7.7780)" x="72.8659" y="-0.1000" width="1.9563" height="0.2000" ry="0.1000" fill="currentColor"/>
<rect transform="translate(0.0000, 6.7780)" x="66.4579" y="-0.1000" width="1.9563" height="0.2000" ry="0.1000" fill="currentColor"/>
<rect transform="translate(0.0000, 7.7780)" x="66.4579" y="-0.1000" width="1.9563" height="0.2000" ry="0.1000" fill="currentColor"/>
<rect transform="translate(0.0000, 6.7780)" x="60.6986" y="-0.1000" width="1.9563" height="0.2000" ry="0.1000" fill="currentColor"/>
<rect transform="translate(0.0000, 7.7780)" x="60.6986" y="-0.1000" width="1.9563" height="0.2000" ry="0.1000" fill="currentColor"/>
<rect transform="translate(0.0000, 6.7780)" x="53.8943" y="-0.1000" width="2.0660" height="0.2000" ry="0.1000" fill="currentColor"/>
<rect transform="translate(0.0000, 7.7780)" x="53.8943" y="-0.1000" width="2.0660" height="0.2000" ry="0.1000" fill="currentColor"/>
<rect transform="translate(0.0000, 6.7780)" x="47.0766" y="-0.1000" width="2.0660" height="0.2000" ry="0.1000" fill="currentColor"/>
<a style="color:inherit;" xlink:href="textedit:///media/common/Documents/Projets_code/liturgie-des-heures_psaumes/cantiques_NT/NT8.ly:17:68:69">
<path transform="translate(79.1561, 24.7442) scale(0.0040, -0.0040)" d="M218 136c55 0 108 -28 108 -89c0 -71 -55 -121 -102 -149c-35 -21 -75 -34 -116 -34c-55 0 -108 28 -108 89c0 71 55 121 102 149c35 21 75 34 116 34z" fill="currentColor"/>
</a>
<a style="color:inherit;" xlink:href="textedit:///media/common/Documents/Projets_code/liturgie-des-heures_psaumes/cantiques_NT/NT8.ly:20:65:66">
<text transform="translate(70.8736, 14.9812)" font-family="serif" font-size="2.4696" text-anchor="start" fill="currentColor">
<tspan>som-</tspan>
</text>
</a>
<a style="color:inherit;" xlink:href="textedit:///media/common/Documents/Projets_code/liturgie-des-heures_psaumes/cantiques_NT/NT8.ly:14:66:67">
<path transform="translate(73.1920, 7.7780) scale(0.0040, -0.0040)" d="M218 136c55 0 108 -28 108 -89c0 -71 -55 -121 -102 -149c-35 -21 -75 -34 -116 -34c-55 0 -108 28 -108 89c0 71 55 121 102 149c35 21 75 34 116 34z" fill="currentColor"/>
</a>
<a style="color:inherit;" xlink:href="textedit:///media/common/Documents/Projets_code/liturgie-des-heures_psaumes/cantiques_NT/NT8.ly:13:66:67">
<path transform="translate(73.1920, 5.7780) scale(0.0040, -0.0040)" d="M218 136c55 0 108 -28 108 -89c0 -71 -55 -121 -102 -149c-35 -21 -75 -34 -116 -34c-55 0 -108 28 -108 89c0 71 55 121 102 149c35 21 75 34 116 34z" fill="currentColor"/>
</a>
<rect transform="translate(66.8490, 23.2442)" x="-0.0650" y="0.6861" width="0.1300" height="2.9806" ry="0.0400" fill="currentColor"/>
<a style="color:inherit;" xlink:href="textedit:///media/common/Documents/Projets_code/liturgie-des-heures_psaumes/cantiques_NT/NT8.ly:17:65:66">
<path transform="translate(73.1920, 24.7442) scale(0.0040, -0.0040)" d="M218 136c55 0 108 -28 108 -89c0 -71 -55 -121 -102 -149c-35 -21 -75 -34 -116 -34c-55 0 -108 28 -108 89c0 71 55 121 102 149c35 21 75 34 116 34z" fill="currentColor"/>
</a>
<rect transform="translate(68.0232, 23.2442)" x="-0.0650" y="-5.5000" width="0.1300" height="2.3139" ry="0.0400" fill="currentColor"/>
<rect transform="translate(66.8490, 3.7780)" x="-0.0650" y="4.6861" width="0.1300" height="2.3139" ry="0.0400" fill="currentColor"/>
<rect transform="translate(68.0232, 3.7780)" x="-0.0650" y="-1.5000" width="0.1300" height="3.3139" ry="0.0400" fill="currentColor"/>
<a style="color:inherit;" xlink:href="textedit:///media/common/Documents/Projets_code/liturgie-des-heures_psaumes/cantiques_NT/NT8.ly:17:61:62">
<path transform="translate(66.7840, 23.7442) scale(0.0040, -0.0040)" d="M218 136c55 0 108 -28 108 -89c0 -71 -55 -121 -102 -149c-35 -21 -75 -34 -116 -34c-55 0 -108 28 -108 89c0 71 55 121 102 149c35 21 75 34 116 34z" fill="currentColor"/>
</a>
<a style="color:inherit;" xlink:href="textedit:///media/common/Documents/Projets_code/liturgie-des-heures_psaumes/cantiques_NT/NT8.ly:16:62:63">
<path transform="translate(66.7840, 20.2442) scale(0.0040, -0.0040)" d="M218 136c55 0 108 -28 108 -89c0 -71 -55 -121 -102 -149c-35 -21 -75 -34 -116 -34c-55 0 -108 28 -108 89c0 71 55 121 102 149c35 21 75 34 116 34z" fill="currentColor"/>
</a>
<a style="color:inherit;" xlink:href="textedit:///media/common/Documents/Projets_code/liturgie-des-heures_psaumes/cantiques_NT/NT8.ly:14:52:53">
<path transform="translate(54.2387, 8.2780) scale(0.0040, -0.0040)" d="M314 65c0 24 -21 41 -42 41c-4 0 -8 0 -12 -1c-31 -9 -78 -40 -115 -64s-84 -53 -104 -78c-7 -8 -10 -18 -10 -28c0 -24 21 -41 42 -41c4 0 8 0 12 1c31 9 77 40 114 64s84 53 104 78c7 8 11 18 11 28zM262 136c46 0 82 -21 82 -71c0 -19 -4 -39 -10 -57
c-12 -37 -32 -72 -64 -94c-53 -36 -113 -50 -187 -50c-46 0 -83 21 -83 71c0 19 5 39 11 57c12 37 31 72 63 94c53 36 114 50 188 50z" fill="currentColor"/>
</a>
<a style="color:inherit;" xlink:href="textedit:///media/common/Documents/Projets_code/liturgie-des-heures_psaumes/cantiques_NT/NT8.ly:16:70:71">
<path transform="translate(79.1561, 20.2442) scale(0.0040, -0.0040)" d="M218 136c55 0 108 -28 108 -89c0 -71 -55 -121 -102 -149c-35 -21 -75 -34 -116 -34c-55 0 -108 28 -108 89c0 71 55 121 102 149c35 21 75 34 116 34z" fill="currentColor"/>
</a>
<a style="color:inherit;" xlink:href="textedit:///media/common/Documents/Projets_code/liturgie-des-heures_psaumes/cantiques_NT/NT8.ly:20:70:71">
<text transform="translate(77.2645, 14.9812)" font-family="serif" font-size="2.4696" text-anchor="start" fill="currentColor">
<tspan>mes</tspan>
</text>
</a>
<a style="color:inherit;" xlink:href="textedit:///media/common/Documents/Projets_code/liturgie-des-heures_psaumes/cantiques_NT/NT8.ly:14:69:70">
<path transform="translate(79.1561, 7.7780) scale(0.0040, -0.0040)" d="M218 136c55 0 108 -28 108 -89c0 -71 -55 -121 -102 -149c-35 -21 -75 -34 -116 -34c-55 0 -108 28 -108 89c0 71 55 121 102 149c35 21 75 34 116 34z" fill="currentColor"/>
</a>
<a style="color:inherit;" xlink:href="textedit:///media/common/Documents/Projets_code/liturgie-des-heures_psaumes/cantiques_NT/NT8.ly:13:69:70">
<path transform="translate(79.1561, 5.7780) scale(0.0040, -0.0040)" d="M218 136c55 0 108 -28 108 -89c0 -71 -55 -121 -102 -149c-35 -21 -75 -34 -116 -34c-55 0 -108 28 -108 89c0 71 55 121 102 149c35 21 75 34 116 34z" fill="currentColor"/>
</a>
<rect transform="translate(73.2570, 23.2442)" x="-0.0650" y="1.6861" width="0.1300" height="2.6472" ry="0.0400" fill="currentColor"/>
<a style="color:inherit;" xlink:href="textedit:///media/common/Documents/Projets_code/liturgie-des-heures_psaumes/cantiques_NT/NT8.ly:16:67:68">
<path transform="translate(73.1920, 20.2442) scale(0.0040, -0.0040)" d="M218 136c55 0 108 -28 108 -89c0 -71 -55 -121 -102 -149c-35 -21 -75 -34 -116 -34c-55 0 -108 28 -108 89c0 71 55 121 102 149c35 21 75 34 116 34z" fill="currentColor"/>
</a>
<rect transform="translate(74.4312, 23.2442)" x="-0.0650" y="-5.5000" width="0.1300" height="2.3139" ry="0.0400" fill="currentColor"/>
<rect transform="translate(73.2570, 3.7780)" x="-0.0650" y="4.1861" width="0.1300" height="2.3139" ry="0.0400" fill="currentColor"/>
<rect transform="translate(74.4312, 3.7780)" x="-0.0650" y="-1.5000" width="0.1300" height="3.3139" ry="0.0400" fill="currentColor"/>
<a style="color:inherit;" xlink:href="textedit:///media/common/Documents/Projets_code/liturgie-des-heures_psaumes/cantiques_NT/NT8.ly:13:56:57">
<path transform="translate(61.0247, 5.7780) scale(0.0040, -0.0040)" d="M218 136c55 0 108 -28 108 -89c0 -71 -55 -121 -102 -149c-35 -21 -75 -34 -116 -34c-55 0 -108 28 -108 89c0 71 55 121 102 149c35 21 75 34 116 34z" fill="currentColor"/>
</a>
<rect transform="translate(54.3037, 23.2442)" x="-0.0650" y="0.7590" width="0.1300" height="2.9077" ry="0.0400" fill="currentColor"/>
<rect transform="translate(55.5510, 23.2442)" x="-0.0650" y="-5.5000" width="0.1300" height="2.2410" ry="0.0400" fill="currentColor"/>
<a style="color:inherit;" xlink:href="textedit:///media/common/Documents/Projets_code/liturgie-des-heures_psaumes/cantiques_NT/NT8.ly:14:56:57">
<path transform="translate(61.0247, 8.2780) scale(0.0040, -0.0040)" d="M218 136c55 0 108 -28 108 -89c0 -71 -55 -121 -102 -149c-35 -21 -75 -34 -116 -34c-55 0 -108 28 -108 89c0 71 55 121 102 149c35 21 75 34 116 34z" fill="currentColor"/>
</a>
<rect transform="translate(54.3037, 3.7780)" x="-0.0650" y="4.7590" width="0.1300" height="2.2410" ry="0.0400" fill="currentColor"/>
<rect transform="translate(55.5510, 3.7780)" x="-0.0650" y="-1.5000" width="0.1300" height="3.2410" ry="0.0400" fill="currentColor"/>
<a style="color:inherit;" xlink:href="textedit:///media/common/Documents/Projets_code/liturgie-des-heures_psaumes/cantiques_NT/NT8.ly:17:52:53">
<path transform="translate(54.2387, 23.7442) scale(0.0040, -0.0040)" d="M314 65c0 24 -21 41 -42 41c-4 0 -8 0 -12 -1c-31 -9 -78 -40 -115 -64s-84 -53 -104 -78c-7 -8 -10 -18 -10 -28c0 -24 21 -41 42 -41c4 0 8 0 12 1c31 9 77 40 114 64s84 53 104 78c7 8 11 18 11 28zM262 136c46 0 82 -21 82 -71c0 -19 -4 -39 -10 -57
c-12 -37 -32 -72 -64 -94c-53 -36 -113 -50 -187 -50c-46 0 -83 21 -83 71c0 19 5 39 11 57c12 37 31 72 63 94c53 36 114 50 188 50z" fill="currentColor"/>
</a>
<a style="color:inherit;" xlink:href="textedit:///media/common/Documents/Projets_code/liturgie-des-heures_psaumes/cantiques_NT/NT8.ly:16:53:54">
<path transform="translate(54.2387, 20.2442) scale(0.0040, -0.0040)" d="M314 65c0 24 -21 41 -42 41c-4 0 -8 0 -12 -1c-31 -9 -78 -40 -115 -64s-84 -53 -104 -78c-7 -8 -10 -18 -10 -28c0 -24 21 -41 42 -41c4 0 8 0 12 1c31 9 77 40 114 64s84 53 104 78c7 8 11 18 11 28zM262 136c46 0 82 -21 82 -71c0 -19 -4 -39 -10 -57
c-12 -37 -32 -72 -64 -94c-53 -36 -113 -50 -187 -50c-46 0 -83 21 -83 71c0 19 5 39 11 57c12 37 31 72 63 94c53 36 114 50 188 50z" fill="currentColor"/>
</a>
<a style="color:inherit;" xlink:href="textedit:///media/common/Documents/Projets_code/liturgie-des-heures_psaumes/cantiques_NT/NT8.ly:20:49:50">
<text transform="translate(50.9497, 14.9812)" font-family="serif" font-size="2.4696" text-anchor="start" fill="currentColor">
<tspan>gneur,</tspan>
</text>
</a>
<a style="color:inherit;" xlink:href="textedit:///media/common/Documents/Projets_code/liturgie-des-heures_psaumes/cantiques_NT/NT8.ly:14:61:62">
<path transform="translate(66.7840, 8.2780) scale(0.0040, -0.0040)" d="M218 136c55 0 108 -28 108 -89c0 -71 -55 -121 -102 -149c-35 -21 -75 -34 -116 -34c-55 0 -108 28 -108 89c0 71 55 121 102 149c35 21 75 34 116 34z" fill="currentColor"/>
</a>
<a style="color:inherit;" xlink:href="textedit:///media/common/Documents/Projets_code/liturgie-des-heures_psaumes/cantiques_NT/NT8.ly:13:61:62">
<path transform="translate(66.7840, 5.7780) scale(0.0040, -0.0040)" d="M218 136c55 0 108 -28 108 -89c0 -71 -55 -121 -102 -149c-35 -21 -75 -34 -116 -34c-55 0 -108 28 -108 89c0 71 55 121 102 149c35 21 75 34 116 34z" fill="currentColor"/>
</a>
<rect transform="translate(61.0897, 23.2442)" x="-0.0650" y="0.6861" width="0.1300" height="2.9806" ry="0.0400" fill="currentColor"/>
<rect transform="translate(62.2639, 23.2442)" x="-0.0650" y="-5.5000" width="0.1300" height="2.3139" ry="0.0400" fill="currentColor"/>
<a style="color:inherit;" xlink:href="textedit:///media/common/Documents/Projets_code/liturgie-des-heures_psaumes/cantiques_NT/NT8.ly:20:60:61">
<text transform="translate(64.4485, 14.9812)" font-family="serif" font-size="2.4696" text-anchor="start" fill="currentColor">
<tspan>nous</tspan>
</text>
</a>
<rect transform="translate(61.0897, 3.7780)" x="-0.0650" y="4.6861" width="0.1300" height="2.3139" ry="0.0400" fill="currentColor"/>
<rect transform="translate(62.2639, 3.7780)" x="-0.0650" y="-1.5000" width="0.1300" height="3.3139" ry="0.0400" fill="currentColor"/>
<a style="color:inherit;" xlink:href="textedit:///media/common/Documents/Projets_code/liturgie-des-heures_psaumes/cantiques_NT/NT8.ly:17:56:57">
<path transform="translate(61.0247, 23.7442) scale(0.0040, -0.0040)" d="M218 136c55 0 108 -28 108 -89c0 -71 -55 -121 -102 -149c-35 -21 -75 -34 -116 -34c-55 0 -108 28 -108 89c0 71 55 121 102 149c35 21 75 34 116 34z" fill="currentColor"/>
</a>
<a style="color:inherit;" xlink:href="textedit:///media/common/Documents/Projets_code/liturgie-des-heures_psaumes/cantiques_NT/NT8.ly:16:57:58">
<path transform="translate(61.0247, 20.2442) scale(0.0040, -0.0040)" d="M218 136c55 0 108 -28 108 -89c0 -71 -55 -121 -102 -149c-35 -21 -75 -34 -116 -34c-55 0 -108 28 -108 89c0 71 55 121 102 149c35 21 75 34 116 34z" fill="currentColor"/>
</a>
<a style="color:inherit;" xlink:href="textedit:///media/common/Documents/Projets_code/liturgie-des-heures_psaumes/cantiques_NT/NT8.ly:20:56:57">
<text transform="translate(59.3550, 14.9812)" font-family="serif" font-size="2.4696" text-anchor="start" fill="currentColor">
<tspan>que</tspan>
</text>
</a>
<rect transform="translate(90.2422, 23.2442)" x="-0.0650" y="-0.2410" width="0.1300" height="3.2410" ry="0.0400" fill="currentColor"/>
<rect transform="translate(91.4895, 23.2442)" x="-0.0650" y="-5.0000" width="0.1300" height="2.2410" ry="0.0400" fill="currentColor"/>
<path transform="translate(88.7272, 8.2780) scale(0.0040, -0.0040)" d="M216 -312c0 -10 -8 -19 -18 -19s-19 9 -19 19v145l-83 -31v-158c0 -10 -9 -19 -19 -19s-18 9 -18 19v145l-32 -12c-2 -1 -5 -1 -7 -1c-11 0 -20 9 -20 20v60c0 8 5 16 13 19l46 16v160l-32 -11c-2 -1 -5 -1 -7 -1c-11 0 -20 9 -20 20v60c0 8 5 15 13 18l46 17v158
c0 10 8 19 18 19s19 -9 19 -19v-145l83 31v158c0 10 9 19 19 19s18 -9 18 -19v-145l32 12c2 1 5 1 7 1c11 0 20 -9 20 -20v-60c0 -8 -5 -16 -13 -19l-46 -16v-160l32 11c2 1 5 1 7 1c11 0 20 -9 20 -20v-60c0 -8 -5 -15 -13 -18l-46 -17v-158zM96 65v-160l83 30v160z" fill="currentColor"/>
<rect transform="translate(90.2422, 3.7780)" x="-0.0650" y="4.7590" width="0.1300" height="2.2410" ry="0.0400" fill="currentColor"/>
<rect transform="translate(91.4895, 3.7780)" x="-0.0650" y="-1.5000" width="0.1300" height="3.2410" ry="0.0400" fill="currentColor"/>
<a style="color:inherit;" xlink:href="textedit:///media/common/Documents/Projets_code/liturgie-des-heures_psaumes/cantiques_NT/NT8.ly:17:78:79">
<path transform="translate(90.8659, 26.5202) scale(0.0040, -0.0040)" d="M-67 -48c0 37 30 67 67 67s67 -30 67 -67s-30 -67 -67 -67s-67 30 -67 67zM0 -363c-157 0 -332 176 -332 366c0 9 10 15 19 15s17 -5 19 -18c26 -148 146 -262 294 -262s268 114 294 262c2 13 10 18 19 18s19 -6 19 -15c0 -190 -175 -366 -332 -366z" fill="currentColor"/>
</a>
<a style="color:inherit;" xlink:href="textedit:///media/common/Documents/Projets_code/liturgie-des-heures_psaumes/cantiques_NT/NT8.ly:16:47:48">
<path transform="translate(47.4209, 23.2442)" stroke-width="0.0800" stroke-linejoin="round" stroke-linecap="round" stroke="currentColor" fill="currentColor" d="M1.6042 -3.0450C2.1869 -3.8512 3.4488 -4.0867 4.2831 -3.5450L4.2831 -3.5450C3.4709 -3.9687 2.2089 -3.7332 1.6042 -3.0450z"/>
</a>
<a style="color:inherit;" xlink:href="textedit:///media/common/Documents/Projets_code/liturgie-des-heures_psaumes/cantiques_NT/NT8.ly:17:76:77">
<path transform="translate(90.1772, 22.7442) scale(0.0040, -0.0040)" d="M314 65c0 24 -21 41 -42 41c-4 0 -8 0 -12 -1c-31 -9 -78 -40 -115 -64s-84 -53 -104 -78c-7 -8 -10 -18 -10 -28c0 -24 21 -41 42 -41c4 0 8 0 12 1c31 9 77 40 114 64s84 53 104 78c7 8 11 18 11 28zM262 136c46 0 82 -21 82 -71c0 -19 -4 -39 -10 -57
c-12 -37 -32 -72 -64 -94c-53 -36 -113 -50 -187 -50c-46 0 -83 21 -83 71c0 19 5 39 11 57c12 37 31 72 63 94c53 36 114 50 188 50z" fill="currentColor"/>
</a>
<rect transform="translate(86.0034, 3.7780)" x="-0.0650" y="-1.5000" width="0.1300" height="3.2410" ry="0.0400" fill="currentColor"/>
<a style="color:inherit;" xlink:href="textedit:///media/common/Documents/Projets_code/liturgie-des-heures_psaumes/cantiques_NT/NT8.ly:17:71:72">
<path transform="translate(84.6910, 22.7442) scale(0.0040, -0.0040)" d="M314 65c0 24 -21 41 -42 41c-4 0 -8 0 -12 -1c-31 -9 -78 -40 -115 -64s-84 -53 -104 -78c-7 -8 -10 -18 -10 -28c0 -24 21 -41 42 -41c4 0 8 0 12 1c31 9 77 40 114 64s84 53 104 78c7 8 11 18 11 28zM262 136c46 0 82 -21 82 -71c0 -19 -4 -39 -10 -57
c-12 -37 -32 -72 -64 -94c-53 -36 -113 -50 -187 -50c-46 0 -83 21 -83 71c0 19 5 39 11 57c12 37 31 72 63 94c53 36 114 50 188 50z" fill="currentColor"/>
</a>
<a style="color:inherit;" xlink:href="textedit:///media/common/Documents/Projets_code/liturgie-des-heures_psaumes/cantiques_NT/NT8.ly:16:73:74">
<path transform="translate(84.6910, 20.7442) scale(0.0040, -0.0040)" d="M314 65c0 24 -21 41 -42 41c-4 0 -8 0 -12 -1c-31 -9 -78 -40 -115 -64s-84 -53 -104 -78c-7 -8 -10 -18 -10 -28c0 -24 21 -41 42 -41c4 0 8 0 12 1c31 9 77 40 114 64s84 53 104 78c7 8 11 18 11 28zM262 136c46 0 82 -21 82 -71c0 -19 -4 -39 -10 -57
c-12 -37 -32 -72 -64 -94c-53 -36 -113 -50 -187 -50c-46 0 -83 21 -83 71c0 19 5 39 11 57c12 37 31 72 63 94c53 36 114 50 188 50z" fill="currentColor"/>
</a>
<a style="color:inherit;" xlink:href="textedit:///media/common/Documents/Projets_code/liturgie-des-heures_psaumes/cantiques_NT/NT8.ly:20:74:75">
<text transform="translate(82.8019, 14.9812)" font-family="serif" font-size="2.4696" text-anchor="start" fill="currentColor">
<tspan>sau-</tspan>
</text>
</a>
<a style="color:inherit;" xlink:href="textedit:///media/common/Documents/Projets_code/liturgie-des-heures_psaumes/cantiques_NT/NT8.ly:14:72:73">
<path transform="translate(84.6910, 7.7780) scale(0.0040, -0.0040)" d="M314 65c0 24 -21 41 -42 41c-4 0 -8 0 -12 -1c-31 -9 -78 -40 -115 -64s-84 -53 -104 -78c-7 -8 -10 -18 -10 -28c0 -24 21 -41 42 -41c4 0 8 0 12 1c31 9 77 40 114 64s84 53 104 78c7 8 11 18 11 28zM262 136c46 0 82 -21 82 -71c0 -19 -4 -39 -10 -57
c-12 -37 -32 -72 -64 -94c-53 -36 -113 -50 -187 -50c-46 0 -83 21 -83 71c0 19 5 39 11 57c12 37 31 72 63 94c53 36 114 50 188 50z" fill="currentColor"/>
</a>
<a style="color:inherit;" xlink:href="textedit:///media/common/Documents/Projets_code/liturgie-des-heures_psaumes/cantiques_NT/NT8.ly:13:72:73">
<path transform="translate(84.6910, 5.7780) scale(0.0040, -0.0040)" d="M314 65c0 24 -21 41 -42 41c-4 0 -8 0 -12 -1c-31 -9 -78 -40 -115 -64s-84 -53 -104 -78c-7 -8 -10 -18 -10 -28c0 -24 21 -41 42 -41c4 0 8 0 12 1c31 9 77 40 114 64s84 53 104 78c7 8 11 18 11 28zM262 136c46 0 82 -21 82 -71c0 -19 -4 -39 -10 -57
c-12 -37 -32 -72 -64 -94c-53 -36 -113 -50 -187 -50c-46 0 -83 21 -83 71c0 19 5 39 11 57c12 37 31 72 63 94c53 36 114 50 188 50z" fill="currentColor"/>
</a>
<rect transform="translate(79.2211, 23.2442)" x="-0.0650" y="1.6861" width="0.1300" height="2.6472" ry="0.0400" fill="currentColor"/>
<rect transform="translate(80.3953, 23.2442)" x="-0.0650" y="-5.5000" width="0.1300" height="2.3139" ry="0.0400" fill="currentColor"/>
<rect transform="translate(79.2211, 3.7780)" x="-0.0650" y="4.1861" width="0.1300" height="2.3139" ry="0.0400" fill="currentColor"/>
<rect transform="translate(84.7560, 23.2442)" x="-0.0650" y="-0.2410" width="0.1300" height="3.2410" ry="0.0400" fill="currentColor"/>
<a style="color:inherit;" xlink:href="textedit:///media/common/Documents/Projets_code/liturgie-des-heures_psaumes/cantiques_NT/NT8.ly:16:79:80">
<path transform="translate(90.8659, 17.9682) scale(0.0040, -0.0040)" d="M-67 48c0 37 30 67 67 67s67 -30 67 -67s-30 -67 -67 -67s-67 30 -67 67zM0 363c157 0 332 -176 332 -366c0 -9 -10 -15 -19 -15s-17 5 -19 18c-26 148 -146 262 -294 262s-268 -114 -294 -262c-2 -13 -10 -18 -19 -18s-19 6 -19 15c0 190 175 366 332 366z" fill="currentColor"/>
</a>
<a style="color:inherit;" xlink:href="textedit:///media/common/Documents/Projets_code/liturgie-des-heures_psaumes/cantiques_NT/NT8.ly:16:77:78">
<path transform="translate(90.1772, 20.7442) scale(0.0040, -0.0040)" d="M314 65c0 24 -21 41 -42 41c-4 0 -8 0 -12 -1c-31 -9 -78 -40 -115 -64s-84 -53 -104 -78c-7 -8 -10 -18 -10 -28c0 -24 21 -41 42 -41c4 0 8 0 12 1c31 9 77 40 114 64s84 53 104 78c7 8 11 18 11 28zM262 136c46 0 82 -21 82 -71c0 -19 -4 -39 -10 -57
c-12 -37 -32 -72 -64 -94c-53 -36 -113 -50 -187 -50c-46 0 -83 21 -83 71c0 19 5 39 11 57c12 37 31 72 63 94c53 36 114 50 188 50z" fill="currentColor"/>
</a>
<a style="color:inherit;" xlink:href="textedit:///media/common/Documents/Projets_code/liturgie-des-heures_psaumes/cantiques_NT/NT8.ly:20:79:80">
<text transform="translate(88.4075, 14.9812)" font-family="serif" font-size="2.4696" text-anchor="start" fill="currentColor">
<tspan>vés.</tspan>
</text>
</a>
<a style="color:inherit;" xlink:href="textedit:///media/common/Documents/Projets_code/liturgie-des-heures_psaumes/cantiques_NT/NT8.ly:14:80:81">
<path transform="translate(90.8659, 11.0540) scale(0.0040, -0.0040)" d="M-67 -48c0 37 30 67 67 67s67 -30 67 -67s-30 -67 -67 -67s-67 30 -67 67zM0 -363c-157 0 -332 176 -332 366c0 9 10 15 19 15s17 -5 19 -18c26 -148 146 -262 294 -262s268 114 294 262c2 13 10 18 19 18s19 -6 19 -15c0 -190 -175 -366 -332 -366z" fill="currentColor"/>
</a>
<a style="color:inherit;" xlink:href="textedit:///media/common/Documents/Projets_code/liturgie-des-heures_psaumes/cantiques_NT/NT8.ly:14:76:77">
<path transform="translate(90.1772, 8.2780) scale(0.0040, -0.0040)" d="M314 65c0 24 -21 41 -42 41c-4 0 -8 0 -12 -1c-31 -9 -78 -40 -115 -64s-84 -53 -104 -78c-7 -8 -10 -18 -10 -28c0 -24 21 -41 42 -41c4 0 8 0 12 1c31 9 77 40 114 64s84 53 104 78c7 8 11 18 11 28zM262 136c46 0 82 -21 82 -71c0 -19 -4 -39 -10 -57
c-12 -37 -32 -72 -64 -94c-53 -36 -113 -50 -187 -50c-46 0 -83 21 -83 71c0 19 5 39 11 57c12 37 31 72 63 94c53 36 114 50 188 50z" fill="currentColor"/>
</a>
<a style="color:inherit;" xlink:href="textedit:///media/common/Documents/Projets_code/liturgie-des-heures_psaumes/cantiques_NT/NT8.ly:13:78:79">
<path transform="translate(90.8659, 1.4520) scale(0.0040, -0.0040)" d="M-67 48c0 37 30 67 67 67s67 -30 67 -67s-30 -67 -67 -67s-67 30 -67 67zM0 363c157 0 332 -176 332 -366c0 -9 -10 -15 -19 -15s-17 5 -19 18c-26 148 -146 262 -294 262s-268 -114 -294 -262c-2 -13 -10 -18 -19 -18s-19 6 -19 15c0 190 175 366 332 366z" fill="currentColor"/>
</a>
<a style="color:inherit;" xlink:href="textedit:///media/common/Documents/Projets_code/liturgie-des-heures_psaumes/cantiques_NT/NT8.ly:13:76:77">
<path transform="translate(90.1772, 5.7780) scale(0.0040, -0.0040)" d="M314 65c0 24 -21 41 -42 41c-4 0 -8 0 -12 -1c-31 -9 -78 -40 -115 -64s-84 -53 -104 -78c-7 -8 -10 -18 -10 -28c0 -24 21 -41 42 -41c4 0 8 0 12 1c31 9 77 40 114 64s84 53 104 78c7 8 11 18 11 28zM262 136c46 0 82 -21 82 -71c0 -19 -4 -39 -10 -57
c-12 -37 -32 -72 -64 -94c-53 -36 -113 -50 -187 -50c-46 0 -83 21 -83 71c0 19 5 39 11 57c12 37 31 72 63 94c53 36 114 50 188 50z" fill="currentColor"/>
</a>
<rect transform="translate(80.3953, 3.7780)" x="-0.0650" y="-1.5000" width="0.1300" height="3.3139" ry="0.0400" fill="currentColor"/>
<rect transform="translate(86.0034, 23.2442)" x="-0.0650" y="-5.0000" width="0.1300" height="2.2410" ry="0.0400" fill="currentColor"/>
<rect transform="translate(84.7560, 3.7780)" x="-0.0650" y="4.2590" width="0.1300" height="2.2410" ry="0.0400" fill="currentColor"/>
<rect transform="translate(20.1089, 23.2442)" x="-0.0650" y="1.6861" width="0.1300" height="2.6472" ry="0.0400" fill="currentColor"/>
<rect transform="translate(25.7108, 3.7780)" x="-0.0650" y="-3.0000" width="0.1300" height="3.3139" ry="0.0400" fill="currentColor"/>
<a style="color:inherit;" xlink:href="textedit:///media/common/Documents/Projets_code/liturgie-des-heures_psaumes/cantiques_NT/NT8.ly:17:30:31">
<path transform="translate(24.4716, 24.7442) scale(0.0040, -0.0040)" d="M218 136c55 0 108 -28 108 -89c0 -71 -55 -121 -102 -149c-35 -21 -75 -34 -116 -34c-55 0 -108 28 -108 89c0 71 55 121 102 149c35 21 75 34 116 34z" fill="currentColor"/>
</a>
<a style="color:inherit;" xlink:href="textedit:///media/common/Documents/Projets_code/liturgie-des-heures_psaumes/cantiques_NT/NT8.ly:16:31:32">
<path transform="translate(24.4716, 20.2442) scale(0.0040, -0.0040)" d="M218 136c55 0 108 -28 108 -89c0 -71 -55 -121 -102 -149c-35 -21 -75 -34 -116 -34c-55 0 -108 28 -108 89c0 71 55 121 102 149c35 21 75 34 116 34z" fill="currentColor"/>
</a>
<a style="color:inherit;" xlink:href="textedit:///media/common/Documents/Projets_code/liturgie-des-heures_psaumes/cantiques_NT/NT8.ly:20:23:24">
<text transform="translate(23.2629, 14.9812)" font-family="serif" font-size="2.4696" text-anchor="start" fill="currentColor">
<tspan>tes</tspan>
</text>
</a>
<a style="color:inherit;" xlink:href="textedit:///media/common/Documents/Projets_code/liturgie-des-heures_psaumes/cantiques_NT/NT8.ly:14:30:31">
<path transform="translate(24.4716, 5.7780) scale(0.0040, -0.0040)" d="M218 136c55 0 108 -28 108 -89c0 -71 -55 -121 -102 -149c-35 -21 -75 -34 -116 -34c-55 0 -108 28 -108 89c0 71 55 121 102 149c35 21 75 34 116 34z" fill="currentColor"/>
</a>
<a style="color:inherit;" xlink:href="textedit:///media/common/Documents/Projets_code/liturgie-des-heures_psaumes/cantiques_NT/NT8.ly:13:30:31">
<path transform="translate(24.4716, 4.2780) scale(0.0040, -0.0040)" d="M218 136c55 0 108 -28 108 -89c0 -71 -55 -121 -102 -149c-35 -21 -75 -34 -116 -34c-55 0 -108 28 -108 89c0 71 55 121 102 149c35 21 75 34 116 34z" fill="currentColor"/>
</a>
<rect transform="translate(21.2831, 23.2442)" x="-0.0650" y="-5.5000" width="0.1300" height="2.3139" ry="0.0400" fill="currentColor"/>
<rect transform="translate(20.1089, 3.7780)" x="-0.0650" y="2.1861" width="0.1300" height="2.4806" ry="0.0400" fill="currentColor"/>
<a style="color:inherit;" xlink:href="textedit:///media/common/Documents/Projets_code/liturgie-des-heures_psaumes/cantiques_NT/NT8.ly:13:52:53">
<path transform="translate(54.2387, 5.7780) scale(0.0040, -0.0040)" d="M314 65c0 24 -21 41 -42 41c-4 0 -8 0 -12 -1c-31 -9 -78 -40 -115 -64s-84 -53 -104 -78c-7 -8 -10 -18 -10 -28c0 -24 21 -41 42 -41c4 0 8 0 12 1c31 9 77 40 114 64s84 53 104 78c7 8 11 18 11 28zM262 136c46 0 82 -21 82 -71c0 -19 -4 -39 -10 -57
c-12 -37 -32 -72 -64 -94c-53 -36 -113 -50 -187 -50c-46 0 -83 21 -83 71c0 19 5 39 11 57c12 37 31 72 63 94c53 36 114 50 188 50z" fill="currentColor"/>
</a>
<a style="color:inherit;" xlink:href="textedit:///media/common/Documents/Projets_code/liturgie-des-heures_psaumes/cantiques_NT/NT8.ly:17:33:34">
<path transform="translate(29.7870, 24.7442) scale(0.0040, -0.0040)" d="M218 136c55 0 108 -28 108 -89c0 -71 -55 -121 -102 -149c-35 -21 -75 -34 -116 -34c-55 0 -108 28 -108 89c0 71 55 121 102 149c35 21 75 34 116 34z" fill="currentColor"/>
</a>
<a style="color:inherit;" xlink:href="textedit:///media/common/Documents/Projets_code/liturgie-des-heures_psaumes/cantiques_NT/NT8.ly:16:34:35">
<path transform="translate(29.7870, 20.2442) scale(0.0040, -0.0040)" d="M218 136c55 0 108 -28 108 -89c0 -71 -55 -121 -102 -149c-35 -21 -75 -34 -116 -34c-55 0 -108 28 -108 89c0 71 55 121 102 149c35 21 75 34 116 34z" fill="currentColor"/>
</a>
<a style="color:inherit;" xlink:href="textedit:///media/common/Documents/Projets_code/liturgie-des-heures_psaumes/cantiques_NT/NT8.ly:20:27:28">
<text transform="translate(27.4345, 14.9812)" font-family="serif" font-size="2.4696" text-anchor="start" fill="currentColor">
<tspan>souf-</tspan>
</text>
</a>
<a style="color:inherit;" xlink:href="textedit:///media/common/Documents/Projets_code/liturgie-des-heures_psaumes/cantiques_NT/NT8.ly:14:33:34">
<path transform="translate(29.7870, 5.7780) scale(0.0040, -0.0040)" d="M218 136c55 0 108 -28 108 -89c0 -71 -55 -121 -102 -149c-35 -21 -75 -34 -116 -34c-55 0 -108 28 -108 89c0 71 55 121 102 149c35 21 75 34 116 34z" fill="currentColor"/>
</a>
<a style="color:inherit;" xlink:href="textedit:///media/common/Documents/Projets_code/liturgie-des-heures_psaumes/cantiques_NT/NT8.ly:13:33:34">
<path transform="translate(29.7870, 4.2780) scale(0.0040, -0.0040)" d="M218 136c55 0 108 -28 108 -89c0 -71 -55 -121 -102 -149c-35 -21 -75 -34 -116 -34c-55 0 -108 28 -108 89c0 71 55 121 102 149c35 21 75 34 116 34z" fill="currentColor"/>
</a>
<rect transform="translate(24.5366, 23.2442)" x="-0.0650" y="1.6861" width="0.1300" height="2.6472" ry="0.0400" fill="currentColor"/>
<rect transform="translate(25.7108, 23.2442)" x="-0.0650" y="-5.5000" width="0.1300" height="2.3139" ry="0.0400" fill="currentColor"/>
<rect transform="translate(24.5366, 3.7780)" x="-0.0650" y="2.1861" width="0.1300" height="2.4806" ry="0.0400" fill="currentColor"/>
<a style="color:inherit;" xlink:href="textedit:///media/common/Documents/Projets_code/liturgie-des-heures_psaumes/cantiques_NT/NT8.ly:10:31:32">
</a>
<rect transform="translate(14.4008, 3.7780)" x="-0.0650" y="2.1861" width="0.1300" height="2.4806" ry="0.0400" fill="currentColor"/>
<rect transform="translate(15.5750, 3.7780)" x="-0.0650" y="-3.0000" width="0.1300" height="3.3139" ry="0.0400" fill="currentColor"/>
<a style="color:inherit;" xlink:href="textedit:///media/common/Documents/Projets_code/liturgie-des-heures_psaumes/cantiques_NT/NT8.ly:11:27:28">
</a>
<path transform="translate(9.3358, 22.2442) scale(0.0040, -0.0040)" d="M557 -125c0 28 23 51 51 51s51 -23 51 -51s-23 -51 -51 -51s-51 23 -51 51zM557 125c0 28 23 51 51 51s51 -23 51 -51s-23 -51 -51 -51s-51 23 -51 51zM232 263c172 0 293 -88 293 -251c0 -263 -263 -414 -516 -521c-3 -3 -6 -4 -9 -4c-7 0 -13 6 -13 13c0 3 1 6 4 9
c202 118 412 265 412 493c0 120 -63 235 -171 235c-74 0 -129 -54 -154 -126c11 5 22 8 34 8c55 0 100 -45 100 -100c0 -58 -44 -106 -100 -106c-60 0 -112 47 -112 106c0 133 102 244 232 244z" fill="currentColor"/>
<a style="color:inherit;" xlink:href="textedit:///media/common/Documents/Projets_code/liturgie-des-heures_psaumes/cantiques_NT/NT8.ly:17:22:23">
<path transform="translate(14.3358, 24.7442) scale(0.0040, -0.0040)" d="M218 136c55 0 108 -28 108 -89c0 -71 -55 -121 -102 -149c-35 -21 -75 -34 -116 -34c-55 0 -108 28 -108 89c0 71 55 121 102 149c35 21 75 34 116 34z" fill="currentColor"/>
</a>
<a style="color:inherit;" xlink:href="textedit:///media/common/Documents/Projets_code/liturgie-des-heures_psaumes/cantiques_NT/NT8.ly:16:22:23">
<path transform="translate(14.3358, 20.2442) scale(0.0040, -0.0040)" d="M218 136c55 0 108 -28 108 -89c0 -71 -55 -121 -102 -149c-35 -21 -75 -34 -116 -34c-55 0 -108 28 -108 89c0 71 55 121 102 149c35 21 75 34 116 34z" fill="currentColor"/>
</a>
<a style="color:inherit;" xlink:href="textedit:///media/common/Documents/Projets_code/liturgie-des-heures_psaumes/cantiques_NT/NT8.ly:20:13:14">
<text transform="translate(11.8467, 14.9812)" font-family="serif" font-size="2.4696" text-anchor="start" fill="currentColor">
<tspan>C'est</tspan>
</text>
</a>
<path transform="translate(9.3358, 4.7780) scale(0.0040, -0.0040)" d="M266 -635h-6c-108 0 -195 88 -195 197c0 58 53 103 112 103c54 0 95 -47 95 -103c0 -52 -43 -95 -95 -95c-11 0 -21 2 -31 6c26 -39 68 -65 117 -65h4zM461 -203c68 24 113 95 113 164c0 90 -66 179 -173 190c24 -116 46 -231 60 -354zM74 28c0 -135 129 -247 264 -247
c28 0 55 2 82 6c-14 127 -37 245 -63 364c-79 -8 -124 -61 -124 -119c0 -44 25 -91 81 -123c5 -5 7 -10 7 -15c0 -11 -10 -22 -22 -22c-3 0 -6 1 -9 2c-80 43 -117 115 -117 185c0 88 58 174 160 197c-14 58 -29 117 -46 175c-107 -121 -213 -243 -213 -403zM335 -262
c-188 0 -333 172 -333 374c0 177 131 306 248 441c-19 62 -37 125 -45 190c-6 52 -7 104 -7 156c0 115 55 224 149 292c6 5 14 5 20 0c71 -84 133 -245 133 -358c0 -143 -86 -255 -180 -364c21 -68 39 -138 56 -207c4 0 9 1 13 1c155 0 256 -128 256 -261
c0 -76 -33 -154 -107 -210c-22 -17 -47 -28 -73 -36c3 -35 5 -70 5 -105c0 -19 -1 -39 -2 -58c-7 -119 -88 -225 -202 -228l1 43c93 2 153 92 159 191c1 18 2 37 2 55c0 31 -1 61 -4 92c-29 -5 -58 -8 -89 -8zM428 916c0 55 -4 79 -20 129c-99 -48 -162 -149 -162 -259
c0 -74 18 -133 36 -194c80 97 146 198 146 324z" fill="currentColor"/>
<a style="color:inherit;" xlink:href="textedit:///media/common/Documents/Projets_code/liturgie-des-heures_psaumes/cantiques_NT/NT8.ly:14:22:23">
<path transform="translate(14.3358, 5.7780) scale(0.0040, -0.0040)" d="M218 136c55 0 108 -28 108 -89c0 -71 -55 -121 -102 -149c-35 -21 -75 -34 -116 -34c-55 0 -108 28 -108 89c0 71 55 121 102 149c35 21 75 34 116 34z" fill="currentColor"/>
</a>
<a style="color:inherit;" xlink:href="textedit:///media/common/Documents/Projets_code/liturgie-des-heures_psaumes/cantiques_NT/NT8.ly:13:22:23">
<path transform="translate(14.3358, 4.2780) scale(0.0040, -0.0040)" d="M218 136c55 0 108 -28 108 -89c0 -71 -55 -121 -102 -149c-35 -21 -75 -34 -116 -34c-55 0 -108 28 -108 89c0 71 55 121 102 149c35 21 75 34 116 34z" fill="currentColor"/>
</a>
<rect transform="translate(8.4758, 13.5111)" x="0.0000" y="-11.7831" width="0.1600" height="23.5662" ry="0.0500" fill="currentColor"/>
<path transform="translate(7.2258, 1.5030) scale(0.0040, -0.0040)" d="M0 -56v87c0 14 11 25 25 25h50c159 0 271 136 362 270c11 17 37 -1 26 -18c-99 -144 -215 -364 -388 -364h-75z" fill="currentColor"/>
<path transform="translate(7.2258, 25.5192) scale(0.0040, -0.0040)" d="M0 56h75c173 0 289 -220 388 -364c11 -17 -15 -35 -26 -18c-91 134 -203 270 -362 270h-50c-14 0 -25 11 -25 25v87z" fill="currentColor"/>
<rect transform="translate(7.2258, 13.5111)" x="0.0000" y="-11.8281" width="0.4500" height="23.6562" ry="0.0000" fill="currentColor"/>
<rect transform="translate(21.2831, 3.7780)" x="-0.0650" y="-3.0000" width="0.1300" height="3.3139" ry="0.0400" fill="currentColor"/>
<a style="color:inherit;" xlink:href="textedit:///media/common/Documents/Projets_code/liturgie-des-heures_psaumes/cantiques_NT/NT8.ly:17:27:28">
<path transform="translate(20.0439, 24.7442) scale(0.0040, -0.0040)" d="M218 136c55 0 108 -28 108 -89c0 -71 -55 -121 -102 -149c-35 -21 -75 -34 -116 -34c-55 0 -108 28 -108 89c0 71 55 121 102 149c35 21 75 34 116 34z" fill="currentColor"/>
</a>
<a style="color:inherit;" xlink:href="textedit:///media/common/Documents/Projets_code/liturgie-des-heures_psaumes/cantiques_NT/NT8.ly:16:28:29">
<path transform="translate(20.0439, 20.2442) scale(0.0040, -0.0040)" d="M218 136c55 0 108 -28 108 -89c0 -71 -55 -121 -102 -149c-35 -21 -75 -34 -116 -34c-55 0 -108 28 -108 89c0 71 55 121 102 149c35 21 75 34 116 34z" fill="currentColor"/>
</a>
<a style="color:inherit;" xlink:href="textedit:///media/common/Documents/Projets_code/liturgie-des-heures_psaumes/cantiques_NT/NT8.ly:20:19:20">
<text transform="translate(18.5791, 14.9812)" font-family="serif" font-size="2.4696" text-anchor="start" fill="currentColor">
<tspan>par</tspan>
</text>
</a>
<a style="color:inherit;" xlink:href="textedit:///media/common/Documents/Projets_code/liturgie-des-heures_psaumes/cantiques_NT/NT8.ly:14:27:28">
<path transform="translate(20.0439, 5.7780) scale(0.0040, -0.0040)" d="M218 136c55 0 108 -28 108 -89c0 -71 -55 -121 -102 -149c-35 -21 -75 -34 -116 -34c-55 0 -108 28 -108 89c0 71 55 121 102 149c35 21 75 34 116 34z" fill="currentColor"/>
</a>
<a style="color:inherit;" xlink:href="textedit:///media/common/Documents/Projets_code/liturgie-des-heures_psaumes/cantiques_NT/NT8.ly:13:27:28">
<path transform="translate(20.0439, 4.2780) scale(0.0040, -0.0040)" d="M218 136c55 0 108 -28 108 -89c0 -71 -55 -121 -102 -149c-35 -21 -75 -34 -116 -34c-55 0 -108 28 -108 89c0 71 55 121 102 149c35 21 75 34 116 34z" fill="currentColor"/>
</a>
<rect transform="translate(31.0262, 3.7780)" x="-0.0650" y="-3.0000" width="0.1300" height="3.3139" ry="0.0400" fill="currentColor"/>
<rect transform="translate(14.4008, 23.2442)" x="-0.0650" y="1.6861" width="0.1300" height="2.6472" ry="0.0400" fill="currentColor"/>
<rect transform="translate(15.5750, 23.2442)" x="-0.0650" y="-5.5000" width="0.1300" height="2.3139" ry="0.0400" fill="currentColor"/>
<a style="color:inherit;" xlink:href="textedit:///media/common/Documents/Projets_code/liturgie-des-heures_psaumes/cantiques_NT/NT8.ly:16:45:46">
<path transform="translate(47.4209, 21.2442) scale(0.0040, -0.0040)" d="M218 136c55 0 108 -28 108 -89c0 -71 -55 -121 -102 -149c-35 -21 -75 -34 -116 -34c-55 0 -108 28 -108 89c0 71 55 121 102 149c35 21 75 34 116 34z" fill="currentColor"/>
</a>
<a style="color:inherit;" xlink:href="textedit:///media/common/Documents/Projets_code/liturgie-des-heures_psaumes/cantiques_NT/NT8.ly:20:44:45">
<text transform="translate(45.7196, 14.9812)" font-family="serif" font-size="2.4696" text-anchor="start" fill="currentColor">
<tspan>Sei-</tspan>
</text>
</a>
<a style="color:inherit;" xlink:href="textedit:///media/common/Documents/Projets_code/liturgie-des-heures_psaumes/cantiques_NT/NT8.ly:14:44:45">
<path transform="translate(47.4209, 6.7780) scale(0.0040, -0.0040)" d="M314 65c0 24 -21 41 -42 41c-4 0 -8 0 -12 -1c-31 -9 -78 -40 -115 -64s-84 -53 -104 -78c-7 -8 -10 -18 -10 -28c0 -24 21 -41 42 -41c4 0 8 0 12 1c31 9 77 40 114 64s84 53 104 78c7 8 11 18 11 28zM262 136c46 0 82 -21 82 -71c0 -19 -4 -39 -10 -57
c-12 -37 -32 -72 -64 -94c-53 -36 -113 -50 -187 -50c-46 0 -83 21 -83 71c0 19 5 39 11 57c12 37 31 72 63 94c53 36 114 50 188 50z" fill="currentColor"/>
</a>
<a style="color:inherit;" xlink:href="textedit:///media/common/Documents/Projets_code/liturgie-des-heures_psaumes/cantiques_NT/NT8.ly:13:44:45">
<path transform="translate(47.4209, 5.2780) scale(0.0040, -0.0040)" d="M314 65c0 24 -21 41 -42 41c-4 0 -8 0 -12 -1c-31 -9 -78 -40 -115 -64s-84 -53 -104 -78c-7 -8 -10 -18 -10 -28c0 -24 21 -41 42 -41c4 0 8 0 12 1c31 9 77 40 114 64s84 53 104 78c7 8 11 18 11 28zM262 136c46 0 82 -21 82 -71c0 -19 -4 -39 -10 -57
c-12 -37 -32 -72 -64 -94c-53 -36 -113 -50 -187 -50c-46 0 -83 21 -83 71c0 19 5 39 11 57c12 37 31 72 63 94c53 36 114 50 188 50z" fill="currentColor"/>
</a>
<rect transform="translate(42.2242, 23.2442)" x="-0.0650" y="-0.3139" width="0.1300" height="3.3139" ry="0.0400" fill="currentColor"/>
<a style="color:inherit;" xlink:href="textedit:///media/common/Documents/Projets_code/liturgie-des-heures_psaumes/cantiques_NT/NT8.ly:17:44:45">
<path transform="translate(47.4209, 22.2442) scale(0.0040, -0.0040)" d="M314 65c0 24 -21 41 -42 41c-4 0 -8 0 -12 -1c-31 -9 -78 -40 -115 -64s-84 -53 -104 -78c-7 -8 -10 -18 -10 -28c0 -24 21 -41 42 -41c4 0 8 0 12 1c31 9 77 40 114 64s84 53 104 78c7 8 11 18 11 28zM262 136c46 0 82 -21 82 -71c0 -19 -4 -39 -10 -57
c-12 -37 -32 -72 -64 -94c-53 -36 -113 -50 -187 -50c-46 0 -83 21 -83 71c0 19 5 39 11 57c12 37 31 72 63 94c53 36 114 50 188 50z" fill="currentColor"/>
</a>
<rect transform="translate(43.3984, 23.2442)" x="-0.0650" y="-5.0000" width="0.1300" height="2.3139" ry="0.0400" fill="currentColor"/>
<rect transform="translate(42.2242, 3.7780)" x="-0.0650" y="2.1861" width="0.1300" height="2.4806" ry="0.0400" fill="currentColor"/>
<rect transform="translate(43.3984, 3.7780)" x="-0.0650" y="-2.5000" width="0.1300" height="3.3139" ry="0.0400" fill="currentColor"/>
<a style="color:inherit;" xlink:href="textedit:///media/common/Documents/Projets_code/liturgie-des-heures_psaumes/cantiques_NT/NT8.ly:17:40:41">
<path transform="translate(42.1592, 22.7442) scale(0.0040, -0.0040)" d="M218 136c55 0 108 -28 108 -89c0 -71 -55 -121 -102 -149c-35 -21 -75 -34 -116 -34c-55 0 -108 28 -108 89c0 71 55 121 102 149c35 21 75 34 116 34z" fill="currentColor"/>
</a>
<rect transform="translate(52.0690, 23.2442)" x="-0.0650" y="-5.0000" width="0.1300" height="2.3139" ry="0.0400" fill="currentColor"/>
<a style="color:inherit;" xlink:href="textedit:///media/common/Documents/Projets_code/liturgie-des-heures_psaumes/cantiques_NT/NT8.ly:16:49:50">
<path transform="translate(50.8298, 20.7442) scale(0.0040, -0.0040)" d="M218 136c55 0 108 -28 108 -89c0 -71 -55 -121 -102 -149c-35 -21 -75 -34 -116 -34c-55 0 -108 28 -108 89c0 71 55 121 102 149c35 21 75 34 116 34z" fill="currentColor"/>
</a>
<rect transform="translate(47.4859, 23.2442)" x="-0.0650" y="-0.7410" width="0.1300" height="3.2410" ry="0.0400" fill="currentColor"/>
<rect transform="translate(48.6602, 23.2442)" x="-0.0650" y="-4.6667" width="0.1300" height="2.4806" ry="0.0400" fill="currentColor"/>
<rect transform="translate(47.4859, 3.7780)" x="-0.0650" y="3.2590" width="0.1300" height="2.2410" ry="0.0400" fill="currentColor"/>
<rect transform="translate(48.7333, 3.7780)" x="-0.0650" y="-2.0000" width="0.1300" height="3.2410" ry="0.0400" fill="currentColor"/>
<a style="color:inherit;" xlink:href="textedit:///media/common/Documents/Projets_code/liturgie-des-heures_psaumes/cantiques_NT/NT8.ly:14:36:37">
<path transform="translate(36.2462, 5.7780) scale(0.0040, -0.0040)" d="M218 136c55 0 108 -28 108 -89c0 -71 -55 -121 -102 -149c-35 -21 -75 -34 -116 -34c-55 0 -108 28 -108 89c0 71 55 121 102 149c35 21 75 34 116 34z" fill="currentColor"/>
</a>
<rect transform="translate(36.3112, 3.7780)" x="-0.0650" y="2.1861" width="0.1300" height="2.4806" ry="0.0400" fill="currentColor"/>
<rect transform="translate(31.0262, 23.2442)" x="-0.0650" y="-5.5000" width="0.1300" height="2.3139" ry="0.0400" fill="currentColor"/>
<rect transform="translate(37.4854, 3.7780)" x="-0.0650" y="-2.5000" width="0.1300" height="3.3139" ry="0.0400" fill="currentColor"/>
<a style="color:inherit;" xlink:href="textedit:///media/common/Documents/Projets_code/liturgie-des-heures_psaumes/cantiques_NT/NT8.ly:17:36:37">
<path transform="translate(36.2462, 22.7442) scale(0.0040, -0.0040)" d="M218 136c55 0 108 -28 108 -89c0 -71 -55 -121 -102 -149c-35 -21 -75 -34 -116 -34c-55 0 -108 28 -108 89c0 71 55 121 102 149c35 21 75 34 116 34z" fill="currentColor"/>
</a>
<a style="color:inherit;" xlink:href="textedit:///media/common/Documents/Projets_code/liturgie-des-heures_psaumes/cantiques_NT/NT8.ly:16:37:38">
<path transform="translate(36.2462, 20.7442) scale(0.0040, -0.0040)" d="M218 136c55 0 108 -28 108 -89c0 -71 -55 -121 -102 -149c-35 -21 -75 -34 -116 -34c-55 0 -108 28 -108 89c0 71 55 121 102 149c35 21 75 34 116 34z" fill="currentColor"/>
</a>
<a style="color:inherit;" xlink:href="textedit:///media/common/Documents/Projets_code/liturgie-des-heures_psaumes/cantiques_NT/NT8.ly:20:33:34">
<text transform="translate(33.8937, 14.9812)" font-family="serif" font-size="2.4696" text-anchor="start" fill="currentColor">
<tspan>fran-</tspan>
</text>
</a>
<a style="color:inherit;" xlink:href="textedit:///media/common/Documents/Projets_code/liturgie-des-heures_psaumes/cantiques_NT/NT8.ly:20:39:40">
<text transform="translate(40.3530, 14.9812)" font-family="serif" font-size="2.4696" text-anchor="start" fill="currentColor">
<tspan>ces,</tspan>
</text>
</a>
<a style="color:inherit;" xlink:href="textedit:///media/common/Documents/Projets_code/liturgie-des-heures_psaumes/cantiques_NT/NT8.ly:13:36:37">
<path transform="translate(36.2462, 4.7780) scale(0.0040, -0.0040)" d="M218 136c55 0 108 -28 108 -89c0 -71 -55 -121 -102 -149c-35 -21 -75 -34 -116 -34c-55 0 -108 28 -108 89c0 71 55 121 102 149c35 21 75 34 116 34z" fill="currentColor"/>
</a>
<rect transform="translate(29.8520, 23.2442)" x="-0.0650" y="1.6861" width="0.1300" height="2.6472" ry="0.0400" fill="currentColor"/>
<rect transform="translate(36.3112, 23.2442)" x="-0.0650" y="-0.3139" width="0.1300" height="3.3139" ry="0.0400" fill="currentColor"/>
<a style="color:inherit;" xlink:href="textedit:///media/common/Documents/Projets_code/liturgie-des-heures_psaumes/cantiques_NT/NT8.ly:16:41:42">
<path transform="translate(42.1592, 20.7442) scale(0.0040, -0.0040)" d="M218 136c55 0 108 -28 108 -89c0 -71 -55 -121 -102 -149c-35 -21 -75 -34 -116 -34c-55 0 -108 28 -108 89c0 71 55 121 102 149c35 21 75 34 116 34z" fill="currentColor"/>
</a>
<rect transform="translate(29.8520, 3.7780)" x="-0.0650" y="2.1861" width="0.1300" height="2.4806" ry="0.0400" fill="currentColor"/>
<a style="color:inherit;" xlink:href="textedit:///media/common/Documents/Projets_code/liturgie-des-heures_psaumes/cantiques_NT/NT8.ly:13:40:41">
<path transform="translate(42.1592, 4.7780) scale(0.0040, -0.0040)" d="M218 136c55 0 108 -28 108 -89c0 -71 -55 -121 -102 -149c-35 -21 -75 -34 -116 -34c-55 0 -108 28 -108 89c0 71 55 121 102 149c35 21 75 34 116 34z" fill="currentColor"/>
</a>
<a style="color:inherit;" xlink:href="textedit:///media/common/Documents/Projets_code/liturgie-des-heures_psaumes/cantiques_NT/NT8.ly:14:40:41">
<path transform="translate(42.1592, 5.7780) scale(0.0040, -0.0040)" d="M218 136c55 0 108 -28 108 -89c0 -71 -55 -121 -102 -149c-35 -21 -75 -34 -116 -34c-55 0 -108 28 -108 89c0 71 55 121 102 149c35 21 75 34 116 34z" fill="currentColor"/>
</a>
<rect transform="translate(37.4854, 23.2442)" x="-0.0650" y="-5.0000" width="0.1300" height="2.3139" ry="0.0400" fill="currentColor"/>
</svg>
